M48
; DRILL file KiCad 10.0.4 date 2026-07-20T22:14:37
; FORMAT={-:-/ absolute / metric / decimal}
; #@! TF.CreationDate,2026-07-20T22:14:37+05:30
; #@! TF.GenerationSoftware,Kicad,Pcbnew,10.0.4
; #@! TF.FileFunction,Plated,1,2,PTH
FMAT,2
METRIC
; #@! TA.AperFunction,Plated,PTH,ViaDrill
T1C0.300
; #@! TA.AperFunction,Plated,PTH,ComponentDrill
T2C0.800
; #@! TA.AperFunction,Plated,PTH,ComponentDrill
T3C0.900
; #@! TA.AperFunction,Plated,PTH,ComponentDrill
T4C1.000
; #@! TA.AperFunction,Plated,PTH,ComponentDrill
T5C1.300
%
G90
G05
T1
X59.771Y-77.797
X108.088Y-81.003
T2
X140.45Y-70.38
X140.45Y-78.0
X144.5Y-70.38
X144.5Y-78.0
X146.345Y-40.46
X146.345Y-45.54
X148.55Y-70.38
X148.55Y-78.0
X151.425Y-43.0
X152.6Y-70.38
X152.6Y-78.0
T3
X120.0Y-72.5
X120.225Y-61.5
X122.54Y-72.5
X122.765Y-61.5
T4
X52.87Y-47.185
X52.87Y-49.725
X52.87Y-52.265
X52.87Y-54.805
X52.87Y-57.345
X52.87Y-59.885
X52.87Y-62.425
X52.87Y-64.965
X52.87Y-67.505
X52.87Y-70.045
X52.87Y-74.105
X52.87Y-76.645
X52.87Y-79.185
X52.87Y-81.725
X52.87Y-84.265
X52.87Y-86.805
X52.87Y-89.345
X52.87Y-91.885
X101.13Y-56.325
X101.13Y-58.865
X101.13Y-61.405
X101.13Y-63.945
X101.13Y-66.485
X101.13Y-69.025
X101.13Y-71.565
X101.13Y-74.105
X101.13Y-79.185
X101.13Y-81.725
X101.13Y-84.265
X101.13Y-86.805
X101.13Y-89.345
X101.13Y-91.885
X117.34Y-85.69
X117.34Y-88.23
X117.34Y-90.77
X117.34Y-93.31
X119.88Y-85.69
X119.88Y-88.23
X119.88Y-90.77
X119.88Y-93.31
X123.0Y-25.38
X123.0Y-27.92
X123.0Y-30.46
X123.0Y-33.0
X162.5Y-41.805
X162.5Y-44.345
X162.5Y-46.885
X162.5Y-49.425
X162.5Y-51.965
X162.5Y-54.505
X162.5Y-57.045
X162.5Y-59.585
X162.5Y-62.125
X162.5Y-64.665
X162.5Y-67.205
X162.5Y-69.745
X162.5Y-72.285
X162.5Y-74.825
X162.5Y-77.365
X162.5Y-79.905
T5
X34.5Y-71.367
X34.5Y-76.367
X35.5Y-43.867
X35.5Y-48.867
X120.0Y-44.0
X120.0Y-49.0
M30
