%TF.GenerationSoftware,KiCad,Pcbnew,10.0.4*%
%TF.CreationDate,2026-07-20T22:14:21+05:30*%
%TF.ProjectId,SMART DAM_IOT_PCB,534d4152-5420-4444-914d-5f494f545f50,rev?*%
%TF.SameCoordinates,Original*%
%TF.FileFunction,Legend,Bot*%
%TF.FilePolarity,Positive*%
%FSLAX46Y46*%
G04 Gerber Fmt 4.6, Leading zero omitted, Abs format (unit mm)*
G04 Created by KiCad (PCBNEW 10.0.4) date 2026-07-20 22:14:21*
%MOMM*%
%LPD*%
G01*
G04 APERTURE LIST*
%ADD10C,0.100000*%
G04 APERTURE END LIST*
D10*
X39577068Y-93896312D02*
X39577068Y-92396312D01*
X39577068Y-92396312D02*
X39077068Y-93467741D01*
X39077068Y-93467741D02*
X38577068Y-92396312D01*
X38577068Y-92396312D02*
X38577068Y-93896312D01*
X37934210Y-93467741D02*
X37219925Y-93467741D01*
X38077067Y-93896312D02*
X37577067Y-92396312D01*
X37577067Y-92396312D02*
X37077067Y-93896312D01*
X36577068Y-93896312D02*
X36577068Y-92396312D01*
X36577068Y-92396312D02*
X36219925Y-92396312D01*
X36219925Y-92396312D02*
X36005639Y-92467741D01*
X36005639Y-92467741D02*
X35862782Y-92610598D01*
X35862782Y-92610598D02*
X35791353Y-92753455D01*
X35791353Y-92753455D02*
X35719925Y-93039169D01*
X35719925Y-93039169D02*
X35719925Y-93253455D01*
X35719925Y-93253455D02*
X35791353Y-93539169D01*
X35791353Y-93539169D02*
X35862782Y-93682026D01*
X35862782Y-93682026D02*
X36005639Y-93824884D01*
X36005639Y-93824884D02*
X36219925Y-93896312D01*
X36219925Y-93896312D02*
X36577068Y-93896312D01*
X35077068Y-93110598D02*
X34577068Y-93110598D01*
X34362782Y-93896312D02*
X35077068Y-93896312D01*
X35077068Y-93896312D02*
X35077068Y-92396312D01*
X35077068Y-92396312D02*
X34362782Y-92396312D01*
X32077068Y-93110598D02*
X31862782Y-93182026D01*
X31862782Y-93182026D02*
X31791353Y-93253455D01*
X31791353Y-93253455D02*
X31719925Y-93396312D01*
X31719925Y-93396312D02*
X31719925Y-93610598D01*
X31719925Y-93610598D02*
X31791353Y-93753455D01*
X31791353Y-93753455D02*
X31862782Y-93824884D01*
X31862782Y-93824884D02*
X32005639Y-93896312D01*
X32005639Y-93896312D02*
X32577068Y-93896312D01*
X32577068Y-93896312D02*
X32577068Y-92396312D01*
X32577068Y-92396312D02*
X32077068Y-92396312D01*
X32077068Y-92396312D02*
X31934211Y-92467741D01*
X31934211Y-92467741D02*
X31862782Y-92539169D01*
X31862782Y-92539169D02*
X31791353Y-92682026D01*
X31791353Y-92682026D02*
X31791353Y-92824884D01*
X31791353Y-92824884D02*
X31862782Y-92967741D01*
X31862782Y-92967741D02*
X31934211Y-93039169D01*
X31934211Y-93039169D02*
X32077068Y-93110598D01*
X32077068Y-93110598D02*
X32577068Y-93110598D01*
X30791353Y-93182026D02*
X30791353Y-93896312D01*
X31291353Y-92396312D02*
X30791353Y-93182026D01*
X30791353Y-93182026D02*
X30291353Y-92396312D01*
X39648496Y-95882657D02*
X38934211Y-95882657D01*
X39791353Y-96311228D02*
X39291353Y-94811228D01*
X39291353Y-94811228D02*
X38791353Y-96311228D01*
X38362782Y-96239800D02*
X38148497Y-96311228D01*
X38148497Y-96311228D02*
X37791354Y-96311228D01*
X37791354Y-96311228D02*
X37648497Y-96239800D01*
X37648497Y-96239800D02*
X37577068Y-96168371D01*
X37577068Y-96168371D02*
X37505639Y-96025514D01*
X37505639Y-96025514D02*
X37505639Y-95882657D01*
X37505639Y-95882657D02*
X37577068Y-95739800D01*
X37577068Y-95739800D02*
X37648497Y-95668371D01*
X37648497Y-95668371D02*
X37791354Y-95596942D01*
X37791354Y-95596942D02*
X38077068Y-95525514D01*
X38077068Y-95525514D02*
X38219925Y-95454085D01*
X38219925Y-95454085D02*
X38291354Y-95382657D01*
X38291354Y-95382657D02*
X38362782Y-95239800D01*
X38362782Y-95239800D02*
X38362782Y-95096942D01*
X38362782Y-95096942D02*
X38291354Y-94954085D01*
X38291354Y-94954085D02*
X38219925Y-94882657D01*
X38219925Y-94882657D02*
X38077068Y-94811228D01*
X38077068Y-94811228D02*
X37719925Y-94811228D01*
X37719925Y-94811228D02*
X37505639Y-94882657D01*
X36862783Y-96311228D02*
X36862783Y-94811228D01*
X36862783Y-95525514D02*
X36005640Y-95525514D01*
X36005640Y-96311228D02*
X36005640Y-94811228D01*
X35434211Y-94811228D02*
X35077068Y-96311228D01*
X35077068Y-96311228D02*
X34791354Y-95239800D01*
X34791354Y-95239800D02*
X34505639Y-96311228D01*
X34505639Y-96311228D02*
X34148497Y-94811228D01*
X33577068Y-96311228D02*
X33577068Y-94811228D01*
X33077067Y-94811228D02*
X32219925Y-94811228D01*
X32648496Y-96311228D02*
X32648496Y-94811228D01*
X31719925Y-96311228D02*
X31719925Y-94811228D01*
X31719925Y-95525514D02*
X30862782Y-95525514D01*
X30862782Y-96311228D02*
X30862782Y-94811228D01*
M02*
