%TF.GenerationSoftware,KiCad,Pcbnew,10.0.4*%
%TF.CreationDate,2026-07-20T22:14:20+05:30*%
%TF.ProjectId,SMART DAM_IOT_PCB,534d4152-5420-4444-914d-5f494f545f50,rev?*%
%TF.SameCoordinates,Original*%
%TF.FileFunction,Copper,L1,Top*%
%TF.FilePolarity,Positive*%
%FSLAX46Y46*%
G04 Gerber Fmt 4.6, Leading zero omitted, Abs format (unit mm)*
G04 Created by KiCad (PCBNEW 10.0.4) date 2026-07-20 22:14:20*
%MOMM*%
%LPD*%
G01*
G04 APERTURE LIST*
G04 Aperture macros list*
%AMRoundRect*
0 Rectangle with rounded corners*
0 $1 Rounding radius*
0 $2 $3 $4 $5 $6 $7 $8 $9 X,Y pos of 4 corners*
0 Add a 4 corners polygon primitive as box body*
4,1,4,$2,$3,$4,$5,$6,$7,$8,$9,$2,$3,0*
0 Add four circle primitives for the rounded corners*
1,1,$1+$1,$2,$3*
1,1,$1+$1,$4,$5*
1,1,$1+$1,$6,$7*
1,1,$1+$1,$8,$9*
0 Add four rect primitives between the rounded corners*
20,1,$1+$1,$2,$3,$4,$5,0*
20,1,$1+$1,$4,$5,$6,$7,0*
20,1,$1+$1,$6,$7,$8,$9,0*
20,1,$1+$1,$8,$9,$2,$3,0*%
G04 Aperture macros list end*
%TA.AperFunction,ComponentPad*%
%ADD10C,1.600000*%
%TD*%
%TA.AperFunction,ComponentPad*%
%ADD11R,1.600000X1.600000*%
%TD*%
%TA.AperFunction,ComponentPad*%
%ADD12O,1.600000X1.600000*%
%TD*%
%TA.AperFunction,ComponentPad*%
%ADD13R,1.700000X1.700000*%
%TD*%
%TA.AperFunction,ComponentPad*%
%ADD14C,1.700000*%
%TD*%
%TA.AperFunction,ComponentPad*%
%ADD15R,1.800000X1.800000*%
%TD*%
%TA.AperFunction,ComponentPad*%
%ADD16C,1.800000*%
%TD*%
%TA.AperFunction,ComponentPad*%
%ADD17RoundRect,0.250000X1.050000X-1.050000X1.050000X1.050000X-1.050000X1.050000X-1.050000X-1.050000X0*%
%TD*%
%TA.AperFunction,ComponentPad*%
%ADD18C,2.600000*%
%TD*%
%TA.AperFunction,ComponentPad*%
%ADD19C,1.440000*%
%TD*%
%TA.AperFunction,ViaPad*%
%ADD20C,0.600000*%
%TD*%
%TA.AperFunction,Conductor*%
%ADD21C,0.400000*%
%TD*%
G04 APERTURE END LIST*
D10*
%TO.P,R1,1*%
%TO.N,Net-(D1-A)*%
X140450000Y-78000000D03*
%TO.P,R1,2*%
%TO.N,Net-(A1-A1)*%
X140450000Y-70380000D03*
%TD*%
%TO.P,R4,1*%
%TO.N,GND*%
X152600000Y-78000000D03*
%TO.P,R4,2*%
%TO.N,Net-(U1-RXD{slash}IO3)*%
X152600000Y-70380000D03*
%TD*%
%TO.P,R3,1*%
%TO.N,Net-(A1-D7)*%
X148550000Y-78000000D03*
%TO.P,R3,2*%
%TO.N,Net-(U1-RXD{slash}IO3)*%
X148550000Y-70380000D03*
%TD*%
%TO.P,R2,1*%
%TO.N,Net-(A1-+5V)*%
X144500000Y-78000000D03*
%TO.P,R2,2*%
%TO.N,Net-(A1-A2)*%
X144500000Y-70380000D03*
%TD*%
D11*
%TO.P,A1,1,NC_1*%
%TO.N,unconnected-(A1-NC-Pad1)*%
X101130000Y-56325000D03*
D12*
%TO.P,A1,2,IOREF_2*%
%TO.N,unconnected-(A1-IOREF-Pad2)*%
X101130000Y-58865000D03*
%TO.P,A1,3,~{RESET}_3*%
%TO.N,unconnected-(A1-~{RESET}-Pad3)*%
X101130000Y-61405000D03*
%TO.P,A1,4,3V3_4*%
%TO.N,unconnected-(A1-3V3-Pad4)*%
X101130000Y-63945000D03*
%TO.P,A1,5,+5V_5*%
%TO.N,Net-(A1-+5V)*%
X101130000Y-66485000D03*
%TO.P,A1,6,GND_6*%
%TO.N,unconnected-(A1-GND-Pad6)*%
X101130000Y-69025000D03*
%TO.P,A1,7,GND_7*%
%TO.N,unconnected-(A1-GND-Pad7)*%
X101130000Y-71565000D03*
%TO.P,A1,8,VIN_8*%
%TO.N,Net-(A1-VIN)*%
X101130000Y-74105000D03*
%TO.P,A1,9,A0_9*%
%TO.N,Net-(A1-A0)*%
X101130000Y-79185000D03*
%TO.P,A1,10,A1_10*%
%TO.N,Net-(A1-A1)*%
X101130000Y-81725000D03*
%TO.P,A1,11,A2_11*%
%TO.N,Net-(A1-A2)*%
X101130000Y-84265000D03*
%TO.P,A1,12,A3_12*%
%TO.N,unconnected-(A1-A3-Pad12)*%
X101130000Y-86805000D03*
%TO.P,A1,13,SDA/A4_13*%
%TO.N,unconnected-(A1-SDA{slash}A4-Pad13)*%
X101130000Y-89345000D03*
%TO.P,A1,14,SCL/A5_14*%
%TO.N,unconnected-(A1-SCL{slash}A5-Pad14)*%
X101130000Y-91885000D03*
%TO.P,A1,15,D0/RX_15*%
%TO.N,unconnected-(A1-D0{slash}RX-Pad15)*%
X52870000Y-91885000D03*
%TO.P,A1,16,D1/TX_16*%
%TO.N,unconnected-(A1-D1{slash}TX-Pad16)*%
X52870000Y-89345000D03*
%TO.P,A1,17,D2_17*%
%TO.N,Net-(A1-D2)*%
X52870000Y-86805000D03*
%TO.P,A1,18,D3_18*%
%TO.N,Net-(A1-D3)*%
X52870000Y-84265000D03*
%TO.P,A1,19,D4_19*%
%TO.N,Net-(A1-D4)*%
X52870000Y-81725000D03*
%TO.P,A1,20,D5_20*%
%TO.N,Net-(A1-D5)*%
X52870000Y-79185000D03*
%TO.P,A1,21,D6_21*%
%TO.N,Net-(A1-D6)*%
X52870000Y-76645000D03*
%TO.P,A1,22,D7_22*%
%TO.N,Net-(A1-D7)*%
X52870000Y-74105000D03*
%TO.P,A1,23,D8_23*%
%TO.N,Net-(A1-D8)*%
X52870000Y-70045000D03*
%TO.P,A1,24,D9_24*%
%TO.N,Net-(A1-D9)*%
X52870000Y-67505000D03*
%TO.P,A1,25,D10_25*%
%TO.N,unconnected-(A1-D10-Pad25)*%
X52870000Y-64965000D03*
%TO.P,A1,26,D11_26*%
%TO.N,Net-(A1-D11)*%
X52870000Y-62425000D03*
%TO.P,A1,27,D12_27*%
%TO.N,Net-(A1-D12)*%
X52870000Y-59885000D03*
%TO.P,A1,28,D13_28*%
%TO.N,unconnected-(A1-D13-Pad28)*%
X52870000Y-57345000D03*
%TO.P,A1,29,GND_29*%
%TO.N,unconnected-(A1-GND-Pad29)*%
X52870000Y-54805000D03*
%TO.P,A1,30,AREF_30*%
%TO.N,unconnected-(A1-AREF-Pad30)*%
X52870000Y-52265000D03*
%TO.P,A1,31,SDA/A4_31*%
%TO.N,unconnected-(A1-SDA{slash}A4-Pad31)*%
X52870000Y-49725000D03*
%TO.P,A1,32,SCL/A5_32*%
%TO.N,unconnected-(A1-SCL{slash}A5-Pad32)*%
X52870000Y-47185000D03*
%TD*%
D13*
%TO.P,J1,1,Pin_1_1*%
%TO.N,Net-(A1-+5V)*%
X123000000Y-25380000D03*
D14*
%TO.P,J1,2,Pin_2_2*%
%TO.N,Net-(A1-D9)*%
X123000000Y-27920000D03*
%TO.P,J1,3,Pin_3_3*%
%TO.N,Net-(A1-D8)*%
X123000000Y-30460000D03*
%TO.P,J1,4,Pin_4_4*%
%TO.N,GND*%
X123000000Y-33000000D03*
%TD*%
D13*
%TO.P,U1,1,GND_1*%
%TO.N,GND*%
X117340000Y-85690000D03*
D14*
%TO.P,U1,2,IO2_2*%
%TO.N,unconnected-(U1-IO2-Pad2)*%
X119880000Y-85690000D03*
%TO.P,U1,3,IO0_3*%
%TO.N,unconnected-(U1-IO0-Pad3)*%
X117340000Y-88230000D03*
%TO.P,U1,4,RXD/IO3_4*%
%TO.N,Net-(U1-RXD{slash}IO3)*%
X119880000Y-88230000D03*
%TO.P,U1,5,TXD/IO1_5*%
%TO.N,Net-(A1-D6)*%
X117340000Y-90770000D03*
%TO.P,U1,6,EN_6*%
%TO.N,Net-(J4-Pin_1)*%
X119880000Y-90770000D03*
%TO.P,U1,7,~{RST}_7*%
%TO.N,unconnected-(U1-~{RST}-Pad7)*%
X117340000Y-93310000D03*
%TO.P,U1,8,VCC_8*%
%TO.N,Net-(J4-Pin_1)*%
X119880000Y-93310000D03*
%TD*%
D13*
%TO.P,DS1,1,VSS_1*%
%TO.N,GND*%
X162500000Y-41805000D03*
D14*
%TO.P,DS1,2,VDD_2*%
%TO.N,Net-(A1-+5V)*%
X162500000Y-44345000D03*
%TO.P,DS1,3,VO_3*%
%TO.N,Net-(DS1-VO)*%
X162500000Y-46885000D03*
%TO.P,DS1,4,RS_4*%
%TO.N,Net-(A1-D12)*%
X162500000Y-49425000D03*
%TO.P,DS1,5,R/W_5*%
%TO.N,unconnected-(DS1-R{slash}W-Pad5)*%
X162500000Y-51965000D03*
%TO.P,DS1,6,E_6*%
%TO.N,Net-(A1-D11)*%
X162500000Y-54505000D03*
%TO.P,DS1,7,D0_7*%
%TO.N,unconnected-(DS1-D0-Pad7)*%
X162500000Y-57045000D03*
%TO.P,DS1,8,D1_8*%
%TO.N,unconnected-(DS1-D1-Pad8)*%
X162500000Y-59585000D03*
%TO.P,DS1,9,D2_9*%
%TO.N,unconnected-(DS1-D2-Pad9)*%
X162500000Y-62125000D03*
%TO.P,DS1,10,D3_10*%
%TO.N,unconnected-(DS1-D3-Pad10)*%
X162500000Y-64665000D03*
%TO.P,DS1,11,D4_11*%
%TO.N,Net-(A1-D5)*%
X162500000Y-67205000D03*
%TO.P,DS1,12,D5_12*%
%TO.N,Net-(A1-D4)*%
X162500000Y-69745000D03*
%TO.P,DS1,13,D6_13*%
%TO.N,Net-(A1-D3)*%
X162500000Y-72285000D03*
%TO.P,DS1,14,D7_14*%
%TO.N,Net-(A1-D2)*%
X162500000Y-74825000D03*
%TO.P,DS1,15,LED(+)_15*%
%TO.N,unconnected-(DS1-LED(+)-Pad15)*%
X162500000Y-77365000D03*
%TO.P,DS1,16,LED(-)_16*%
%TO.N,unconnected-(DS1-LED(-)-Pad16)*%
X162500000Y-79905000D03*
%TD*%
D15*
%TO.P,D1,1,K_1*%
%TO.N,GND*%
X120000000Y-72500000D03*
D16*
%TO.P,D1,2,A_2*%
%TO.N,Net-(D1-A)*%
X122540000Y-72500000D03*
%TD*%
D17*
%TO.P,J4,1,Pin_1_1*%
%TO.N,Net-(J4-Pin_1)*%
X34500000Y-76367500D03*
D18*
%TO.P,J4,2,Pin_2_2*%
%TO.N,GND*%
X34500000Y-71367500D03*
%TD*%
D17*
%TO.P,J2,1,Pin_1_1*%
%TO.N,Net-(A1-A0)*%
X120000000Y-49000000D03*
D18*
%TO.P,J2,2,Pin_2_2*%
%TO.N,GND*%
X120000000Y-44000000D03*
%TD*%
D17*
%TO.P,J3,1,Pin_1_1*%
%TO.N,Net-(A1-VIN)*%
X35500000Y-48867500D03*
D18*
%TO.P,J3,2,Pin_2_2*%
%TO.N,GND*%
X35500000Y-43867500D03*
%TD*%
D15*
%TO.P,D2,1,K_1*%
%TO.N,GND*%
X120225000Y-61500000D03*
D16*
%TO.P,D2,2,A_2*%
%TO.N,Net-(A1-+5V)*%
X122765000Y-61500000D03*
%TD*%
D19*
%TO.P,RV1,1,1_1*%
%TO.N,GND*%
X146345000Y-45540000D03*
%TO.P,RV1,2,2_2*%
%TO.N,Net-(DS1-VO)*%
X151425000Y-43000000D03*
%TO.P,RV1,3,3_3*%
%TO.N,Net-(A1-+5V)*%
X146345000Y-40460000D03*
%TD*%
D20*
%TO.N,Net-(A1-D7)*%
X59770900Y-77796700D03*
%TO.N,Net-(A1-A1)*%
X108087700Y-81002900D03*
%TD*%
%TO.N,Net-(U1-RXD{slash}IO3)*%
D21*
X148550000Y-70380000D02*
X152600000Y-70380000D01*
%TO.N,Net-(A1-D7)*%
X147299600Y-79250400D02*
X148550000Y-78000000D01*
X140001000Y-79250400D02*
X147299600Y-79250400D01*
%TO.N,Net-(A1-D4)*%
X139987400Y-71616800D02*
X139566500Y-71195900D01*
%TO.N,Net-(A1-D7)*%
X138547300Y-77796700D02*
X140001000Y-79250400D01*
%TO.N,Net-(DS1-VO)*%
X158615000Y-43000000D02*
X162500000Y-46885000D01*
X151425000Y-43000000D02*
X158615000Y-43000000D01*
%TO.N,Net-(J4-Pin_1)*%
X118610000Y-89500000D02*
X119880000Y-90770000D01*
X113803000Y-89500000D02*
X118610000Y-89500000D01*
X112378000Y-88075000D02*
X113803000Y-89500000D01*
X46207500Y-88075000D02*
X112378000Y-88075000D01*
X34500000Y-76367500D02*
X46207500Y-88075000D01*
%TO.N,Net-(D1-A)*%
X134950000Y-72500000D02*
X140450000Y-78000000D01*
X122540000Y-72500000D02*
X134950000Y-72500000D01*
%TO.N,Net-(A1-D12)*%
X62156900Y-51799800D02*
X54071700Y-59885000D01*
X160125200Y-51799800D02*
X62156900Y-51799800D01*
X162500000Y-49425000D02*
X160125200Y-51799800D01*
X52870000Y-59885000D02*
X54071700Y-59885000D01*
%TO.N,Net-(A1-D11)*%
X61991700Y-54505000D02*
X54071700Y-62425000D01*
X162500000Y-54505000D02*
X61991700Y-54505000D01*
X52870000Y-62425000D02*
X54071700Y-62425000D01*
%TO.N,Net-(A1-D7)*%
X59770900Y-77796700D02*
X138547300Y-77796700D01*
%TO.N,Net-(A1-D5)*%
X52870000Y-79185000D02*
X54071700Y-79185000D01*
X110409400Y-67205000D02*
X162500000Y-67205000D01*
X102238800Y-75375600D02*
X110409400Y-67205000D01*
X89000000Y-75375600D02*
X102238800Y-75375600D01*
X87660600Y-74036200D02*
X89000000Y-75375600D01*
X54500600Y-74036200D02*
X87660600Y-74036200D01*
X54500600Y-74036100D02*
X54500600Y-74036200D01*
X53367800Y-72903300D02*
X54500600Y-74036100D01*
X52372200Y-72903300D02*
X53367800Y-72903300D01*
X51668300Y-73607200D02*
X52372200Y-72903300D01*
X51668300Y-77142800D02*
X51668300Y-73607200D01*
X52372200Y-77846700D02*
X51668300Y-77142800D01*
X53240100Y-77846700D02*
X52372200Y-77846700D01*
X54071700Y-78678300D02*
X53240100Y-77846700D01*
X54071700Y-79185000D02*
X54071700Y-78678300D01*
%TO.N,Net-(A1-D4)*%
X59188100Y-76608600D02*
X54071700Y-81725000D01*
X101936300Y-76608600D02*
X59188100Y-76608600D01*
X107349000Y-71195900D02*
X101936300Y-76608600D01*
X139566500Y-71195900D02*
X107349000Y-71195900D01*
X160628200Y-71616800D02*
X139987400Y-71616800D01*
X162500000Y-69745000D02*
X160628200Y-71616800D01*
X52870000Y-81725000D02*
X54071700Y-81725000D01*
%TO.N,Net-(A1-D3)*%
X52870000Y-84265000D02*
X54071700Y-84265000D01*
X57881700Y-80455000D02*
X54071700Y-84265000D01*
X107643400Y-80455000D02*
X57881700Y-80455000D01*
X107797200Y-80301200D02*
X107643400Y-80455000D01*
X154483800Y-80301200D02*
X107797200Y-80301200D01*
X162500000Y-72285000D02*
X154483800Y-80301200D01*
%TO.N,Net-(A1-D2)*%
X57881700Y-82995000D02*
X54071700Y-86805000D01*
X154330000Y-82995000D02*
X57881700Y-82995000D01*
X162500000Y-74825000D02*
X154330000Y-82995000D01*
X52870000Y-86805000D02*
X54071700Y-86805000D01*
%TO.N,Net-(A1-A1)*%
X107365600Y-81725000D02*
X108087700Y-81002900D01*
X101130000Y-81725000D02*
X107365600Y-81725000D01*
%TO.N,Net-(A1-VIN)*%
X50327500Y-63695000D02*
X35500000Y-48867500D01*
X89518300Y-63695000D02*
X50327500Y-63695000D01*
X99928300Y-74105000D02*
X89518300Y-63695000D01*
X101130000Y-74105000D02*
X99928300Y-74105000D01*
%TO.N,Net-(A1-+5V)*%
X158615000Y-40460000D02*
X162500000Y-44345000D01*
X146345000Y-40460000D02*
X158615000Y-40460000D01*
X117780000Y-66485000D02*
X101130000Y-66485000D01*
X122765000Y-61500000D02*
X117780000Y-66485000D01*
%TD*%
%TA.AperFunction,Conductor*%
%TO.N,GND*%
G36*
X139254416Y-71905043D02*
G01*
X139284406Y-71911567D01*
X139289423Y-71915322D01*
X139292019Y-71916085D01*
X139312662Y-71932718D01*
X139443286Y-72063342D01*
X139519854Y-72139910D01*
X139540859Y-72160915D01*
X139655582Y-72237571D01*
X139655586Y-72237573D01*
X139655589Y-72237575D01*
X139730266Y-72268507D01*
X139783071Y-72290380D01*
X139809676Y-72295672D01*
X139871692Y-72308007D01*
X139918404Y-72317300D01*
X139918407Y-72317300D01*
X160697196Y-72317300D01*
X160798287Y-72297191D01*
X160832528Y-72290380D01*
X160953162Y-72240412D01*
X160960009Y-72237576D01*
X160961167Y-72236957D01*
X160961194Y-72236928D01*
X160961250Y-72236913D01*
X160965381Y-72234705D01*
X160965900Y-72235677D01*
X160992430Y-72228631D01*
X161023279Y-72218970D01*
X161025997Y-72219715D01*
X161028722Y-72218992D01*
X161059490Y-72228901D01*
X161090660Y-72237451D01*
X161092543Y-72239547D01*
X161095227Y-72240412D01*
X161115747Y-72265376D01*
X161137354Y-72289426D01*
X161138351Y-72292873D01*
X161139595Y-72294387D01*
X161141523Y-72303840D01*
X161148655Y-72328498D01*
X161149500Y-72335698D01*
X161149500Y-72391287D01*
X161174674Y-72550230D01*
X161174966Y-72552716D01*
X161169498Y-72584802D01*
X161165329Y-72617064D01*
X161163559Y-72619651D01*
X161163229Y-72621593D01*
X161159259Y-72625940D01*
X161139492Y-72654849D01*
X154229962Y-79564381D01*
X154168639Y-79597866D01*
X154142281Y-79600700D01*
X148239318Y-79600700D01*
X148172279Y-79581015D01*
X148126524Y-79528211D01*
X148116580Y-79459053D01*
X148145605Y-79395497D01*
X148151637Y-79389019D01*
X148223851Y-79316805D01*
X148285174Y-79283320D01*
X148330930Y-79282013D01*
X148447648Y-79300500D01*
X148447649Y-79300500D01*
X148652351Y-79300500D01*
X148652352Y-79300500D01*
X148854534Y-79268477D01*
X149049219Y-79205220D01*
X149231610Y-79112287D01*
X149351465Y-79025208D01*
X149397213Y-78991971D01*
X149397215Y-78991968D01*
X149397219Y-78991966D01*
X149541966Y-78847219D01*
X149541968Y-78847215D01*
X149541971Y-78847213D01*
X149612636Y-78749949D01*
X149662287Y-78681610D01*
X149755220Y-78499219D01*
X149818477Y-78304534D01*
X149850500Y-78102352D01*
X149850500Y-77897682D01*
X151300000Y-77897682D01*
X151300000Y-78102317D01*
X151332009Y-78304417D01*
X151395244Y-78499031D01*
X151488141Y-78681350D01*
X151488147Y-78681359D01*
X151520523Y-78725921D01*
X151520524Y-78725922D01*
X152200000Y-78046446D01*
X152200000Y-78052661D01*
X152227259Y-78154394D01*
X152279920Y-78245606D01*
X152354394Y-78320080D01*
X152445606Y-78372741D01*
X152547339Y-78400000D01*
X152553553Y-78400000D01*
X151874076Y-79079474D01*
X151918650Y-79111859D01*
X152100968Y-79204755D01*
X152295582Y-79267990D01*
X152497683Y-79300000D01*
X152702317Y-79300000D01*
X152904417Y-79267990D01*
X153099031Y-79204755D01*
X153281349Y-79111859D01*
X153325921Y-79079474D01*
X152646447Y-78400000D01*
X152652661Y-78400000D01*
X152754394Y-78372741D01*
X152845606Y-78320080D01*
X152920080Y-78245606D01*
X152972741Y-78154394D01*
X153000000Y-78052661D01*
X153000000Y-78046447D01*
X153679474Y-78725921D01*
X153711859Y-78681349D01*
X153804755Y-78499031D01*
X153867990Y-78304417D01*
X153900000Y-78102317D01*
X153900000Y-77897682D01*
X153867990Y-77695582D01*
X153804755Y-77500968D01*
X153711859Y-77318650D01*
X153679474Y-77274077D01*
X153679474Y-77274076D01*
X153000000Y-77953551D01*
X153000000Y-77947339D01*
X152972741Y-77845606D01*
X152920080Y-77754394D01*
X152845606Y-77679920D01*
X152754394Y-77627259D01*
X152652661Y-77600000D01*
X152646446Y-77600000D01*
X153325922Y-76920524D01*
X153325921Y-76920523D01*
X153281359Y-76888147D01*
X153281350Y-76888141D01*
X153099031Y-76795244D01*
X152904417Y-76732009D01*
X152702317Y-76700000D01*
X152497683Y-76700000D01*
X152295582Y-76732009D01*
X152100968Y-76795244D01*
X151918644Y-76888143D01*
X151874077Y-76920523D01*
X151874077Y-76920524D01*
X152553554Y-77600000D01*
X152547339Y-77600000D01*
X152445606Y-77627259D01*
X152354394Y-77679920D01*
X152279920Y-77754394D01*
X152227259Y-77845606D01*
X152200000Y-77947339D01*
X152200000Y-77953553D01*
X151520524Y-77274077D01*
X151520523Y-77274077D01*
X151488143Y-77318644D01*
X151395244Y-77500968D01*
X151332009Y-77695582D01*
X151300000Y-77897682D01*
X149850500Y-77897682D01*
X149850500Y-77897648D01*
X149837720Y-77816957D01*
X149818477Y-77695465D01*
X149787458Y-77600000D01*
X149755220Y-77500781D01*
X149755218Y-77500778D01*
X149755218Y-77500776D01*
X149718036Y-77427803D01*
X149662287Y-77318390D01*
X149630092Y-77274077D01*
X149541971Y-77152786D01*
X149397213Y-77008028D01*
X149231613Y-76887715D01*
X149231612Y-76887714D01*
X149231610Y-76887713D01*
X149150892Y-76846585D01*
X149049223Y-76794781D01*
X148854534Y-76731522D01*
X148679995Y-76703878D01*
X148652352Y-76699500D01*
X148447648Y-76699500D01*
X148423329Y-76703351D01*
X148245465Y-76731522D01*
X148050776Y-76794781D01*
X147868386Y-76887715D01*
X147702786Y-77008028D01*
X147558028Y-77152786D01*
X147437715Y-77318386D01*
X147344781Y-77500776D01*
X147281522Y-77695465D01*
X147253001Y-77875542D01*
X147249500Y-77897648D01*
X147249500Y-78102352D01*
X147259898Y-78167999D01*
X147267986Y-78219068D01*
X147259031Y-78288362D01*
X147233194Y-78326147D01*
X147045760Y-78513582D01*
X146984440Y-78547066D01*
X146958081Y-78549900D01*
X145859425Y-78549900D01*
X145792386Y-78530215D01*
X145746631Y-78477411D01*
X145736687Y-78408253D01*
X145741494Y-78387582D01*
X145768476Y-78304538D01*
X145768476Y-78304537D01*
X145768477Y-78304534D01*
X145800500Y-78102352D01*
X145800500Y-77897648D01*
X145787720Y-77816957D01*
X145768477Y-77695465D01*
X145737458Y-77600000D01*
X145705220Y-77500781D01*
X145705218Y-77500778D01*
X145705218Y-77500776D01*
X145668036Y-77427803D01*
X145612287Y-77318390D01*
X145580092Y-77274077D01*
X145491971Y-77152786D01*
X145347213Y-77008028D01*
X145181613Y-76887715D01*
X145181612Y-76887714D01*
X145181610Y-76887713D01*
X145100892Y-76846585D01*
X144999223Y-76794781D01*
X144804534Y-76731522D01*
X144629995Y-76703878D01*
X144602352Y-76699500D01*
X144397648Y-76699500D01*
X144373329Y-76703351D01*
X144195465Y-76731522D01*
X144000776Y-76794781D01*
X143818386Y-76887715D01*
X143652786Y-77008028D01*
X143508028Y-77152786D01*
X143387715Y-77318386D01*
X143294781Y-77500776D01*
X143231522Y-77695465D01*
X143203001Y-77875542D01*
X143199500Y-77897648D01*
X143199500Y-78102352D01*
X143215511Y-78203443D01*
X143231523Y-78304535D01*
X143231523Y-78304538D01*
X143258506Y-78387582D01*
X143260501Y-78457423D01*
X143224420Y-78517256D01*
X143161719Y-78548084D01*
X143140575Y-78549900D01*
X141809425Y-78549900D01*
X141742386Y-78530215D01*
X141696631Y-78477411D01*
X141686687Y-78408253D01*
X141691494Y-78387582D01*
X141718476Y-78304538D01*
X141718476Y-78304537D01*
X141718477Y-78304534D01*
X141750500Y-78102352D01*
X141750500Y-77897648D01*
X141737720Y-77816957D01*
X141718477Y-77695465D01*
X141687458Y-77600000D01*
X141655220Y-77500781D01*
X141655218Y-77500778D01*
X141655218Y-77500776D01*
X141618036Y-77427803D01*
X141562287Y-77318390D01*
X141530092Y-77274077D01*
X141441971Y-77152786D01*
X141297213Y-77008028D01*
X141131613Y-76887715D01*
X141131612Y-76887714D01*
X141131610Y-76887713D01*
X141050892Y-76846585D01*
X140949223Y-76794781D01*
X140754534Y-76731522D01*
X140579995Y-76703878D01*
X140552352Y-76699500D01*
X140347648Y-76699500D01*
X140230929Y-76717986D01*
X140161636Y-76709031D01*
X140123851Y-76683194D01*
X135548739Y-72108081D01*
X135515254Y-72046758D01*
X135520238Y-71977066D01*
X135562110Y-71921133D01*
X135627574Y-71896716D01*
X135636420Y-71896400D01*
X139224980Y-71896400D01*
X139254416Y-71905043D01*
G37*
%TD.AperFunction*%
%TA.AperFunction,Conductor*%
G36*
X118543039Y-71916085D02*
G01*
X118588794Y-71968889D01*
X118600000Y-72020400D01*
X118600000Y-72250000D01*
X119624722Y-72250000D01*
X119580667Y-72326306D01*
X119550000Y-72440756D01*
X119550000Y-72559244D01*
X119580667Y-72673694D01*
X119624722Y-72750000D01*
X118600000Y-72750000D01*
X118600000Y-73447844D01*
X118606401Y-73507372D01*
X118606403Y-73507379D01*
X118656645Y-73642086D01*
X118656649Y-73642093D01*
X118742809Y-73757187D01*
X118742812Y-73757190D01*
X118857906Y-73843350D01*
X118857913Y-73843354D01*
X118992620Y-73893596D01*
X118992627Y-73893598D01*
X119052155Y-73899999D01*
X119052172Y-73900000D01*
X119750000Y-73900000D01*
X119750000Y-72875277D01*
X119826306Y-72919333D01*
X119940756Y-72950000D01*
X120059244Y-72950000D01*
X120173694Y-72919333D01*
X120250000Y-72875277D01*
X120250000Y-73900000D01*
X120947828Y-73900000D01*
X120947844Y-73899999D01*
X121007372Y-73893598D01*
X121007379Y-73893596D01*
X121142086Y-73843354D01*
X121142093Y-73843350D01*
X121257187Y-73757190D01*
X121257190Y-73757187D01*
X121343350Y-73642093D01*
X121343354Y-73642086D01*
X121373213Y-73562031D01*
X121415084Y-73506097D01*
X121480548Y-73481680D01*
X121548821Y-73496531D01*
X121577076Y-73517683D01*
X121627636Y-73568243D01*
X121627641Y-73568247D01*
X121767626Y-73669951D01*
X121805978Y-73697815D01*
X121922501Y-73757187D01*
X122002393Y-73797895D01*
X122002396Y-73797896D01*
X122107221Y-73831955D01*
X122212049Y-73866015D01*
X122429778Y-73900500D01*
X122429779Y-73900500D01*
X122650221Y-73900500D01*
X122650222Y-73900500D01*
X122867951Y-73866015D01*
X123077606Y-73797895D01*
X123274022Y-73697815D01*
X123452365Y-73568242D01*
X123608242Y-73412365D01*
X123725034Y-73251613D01*
X123780362Y-73208949D01*
X123825351Y-73200500D01*
X134608481Y-73200500D01*
X134675520Y-73220185D01*
X134696162Y-73236819D01*
X138343862Y-76884519D01*
X138377347Y-76945842D01*
X138372363Y-77015534D01*
X138330491Y-77071467D01*
X138265027Y-77095884D01*
X138256181Y-77096200D01*
X102738719Y-77096200D01*
X102671680Y-77076515D01*
X102625925Y-77023711D01*
X102615981Y-76954553D01*
X102645006Y-76890997D01*
X102651038Y-76884519D01*
X107602838Y-71932719D01*
X107664161Y-71899234D01*
X107690519Y-71896400D01*
X118476000Y-71896400D01*
X118543039Y-71916085D01*
G37*
%TD.AperFunction*%
%TA.AperFunction,Conductor*%
G36*
X161343492Y-55225185D02*
G01*
X161376769Y-55256614D01*
X161392300Y-55277989D01*
X161469892Y-55384788D01*
X161620213Y-55535109D01*
X161792182Y-55660050D01*
X161800946Y-55664516D01*
X161851742Y-55712491D01*
X161868536Y-55780312D01*
X161845998Y-55846447D01*
X161800946Y-55885484D01*
X161792182Y-55889949D01*
X161620213Y-56014890D01*
X161469890Y-56165213D01*
X161344951Y-56337179D01*
X161248444Y-56526585D01*
X161182753Y-56728760D01*
X161164220Y-56845776D01*
X161149500Y-56938713D01*
X161149500Y-57151287D01*
X161182754Y-57361243D01*
X161222168Y-57482547D01*
X161248444Y-57563414D01*
X161344951Y-57752820D01*
X161469890Y-57924786D01*
X161620213Y-58075109D01*
X161792182Y-58200050D01*
X161800946Y-58204516D01*
X161851742Y-58252491D01*
X161868536Y-58320312D01*
X161845998Y-58386447D01*
X161800946Y-58425484D01*
X161792182Y-58429949D01*
X161620213Y-58554890D01*
X161469890Y-58705213D01*
X161344951Y-58877179D01*
X161248444Y-59066585D01*
X161182753Y-59268760D01*
X161164220Y-59385776D01*
X161149500Y-59478713D01*
X161149500Y-59691287D01*
X161182754Y-59901243D01*
X161247334Y-60100000D01*
X161248444Y-60103414D01*
X161344951Y-60292820D01*
X161469890Y-60464786D01*
X161620213Y-60615109D01*
X161792182Y-60740050D01*
X161800946Y-60744516D01*
X161851742Y-60792491D01*
X161868536Y-60860312D01*
X161845998Y-60926447D01*
X161800946Y-60965484D01*
X161792182Y-60969949D01*
X161620213Y-61094890D01*
X161469890Y-61245213D01*
X161344951Y-61417179D01*
X161248444Y-61606585D01*
X161182753Y-61808760D01*
X161165240Y-61919333D01*
X161149500Y-62018713D01*
X161149500Y-62231287D01*
X161182754Y-62441243D01*
X161248014Y-62642093D01*
X161248444Y-62643414D01*
X161344951Y-62832820D01*
X161469890Y-63004786D01*
X161620213Y-63155109D01*
X161792182Y-63280050D01*
X161800946Y-63284516D01*
X161851742Y-63332491D01*
X161868536Y-63400312D01*
X161845998Y-63466447D01*
X161800946Y-63505484D01*
X161792182Y-63509949D01*
X161620213Y-63634890D01*
X161469890Y-63785213D01*
X161344951Y-63957179D01*
X161248444Y-64146585D01*
X161182753Y-64348760D01*
X161152916Y-64537147D01*
X161149500Y-64558713D01*
X161149500Y-64771287D01*
X161182754Y-64981243D01*
X161237658Y-65150220D01*
X161248444Y-65183414D01*
X161344951Y-65372820D01*
X161469890Y-65544786D01*
X161620213Y-65695109D01*
X161792182Y-65820050D01*
X161800946Y-65824516D01*
X161851742Y-65872491D01*
X161868536Y-65940312D01*
X161845998Y-66006447D01*
X161800946Y-66045484D01*
X161792182Y-66049949D01*
X161620213Y-66174890D01*
X161469892Y-66325211D01*
X161401573Y-66419247D01*
X161376770Y-66453385D01*
X161321442Y-66496051D01*
X161276453Y-66504500D01*
X119050519Y-66504500D01*
X118983480Y-66484815D01*
X118937725Y-66432011D01*
X118927781Y-66362853D01*
X118956806Y-66299297D01*
X118962838Y-66292819D01*
X119791438Y-65464219D01*
X122351449Y-62904206D01*
X122412770Y-62870723D01*
X122458522Y-62869416D01*
X122654778Y-62900500D01*
X122654779Y-62900500D01*
X122875221Y-62900500D01*
X122875222Y-62900500D01*
X123092951Y-62866015D01*
X123302606Y-62797895D01*
X123499022Y-62697815D01*
X123677365Y-62568242D01*
X123833242Y-62412365D01*
X123962815Y-62234022D01*
X124062895Y-62037606D01*
X124131015Y-61827951D01*
X124165500Y-61610222D01*
X124165500Y-61389778D01*
X124131015Y-61172049D01*
X124096955Y-61067221D01*
X124062896Y-60962396D01*
X124062895Y-60962393D01*
X123998777Y-60836557D01*
X123962815Y-60765978D01*
X123858018Y-60621736D01*
X123833247Y-60587641D01*
X123833243Y-60587636D01*
X123677363Y-60431756D01*
X123677358Y-60431752D01*
X123499025Y-60302187D01*
X123499024Y-60302186D01*
X123499022Y-60302185D01*
X123436096Y-60270122D01*
X123302606Y-60202104D01*
X123302603Y-60202103D01*
X123092952Y-60133985D01*
X122984086Y-60116742D01*
X122875222Y-60099500D01*
X122654778Y-60099500D01*
X122582201Y-60110995D01*
X122437047Y-60133985D01*
X122227396Y-60202103D01*
X122227393Y-60202104D01*
X122030974Y-60302187D01*
X121852641Y-60431752D01*
X121852636Y-60431756D01*
X121802075Y-60482317D01*
X121740752Y-60515801D01*
X121671060Y-60510816D01*
X121615127Y-60468945D01*
X121598213Y-60437968D01*
X121568354Y-60357913D01*
X121568350Y-60357906D01*
X121482190Y-60242812D01*
X121482187Y-60242809D01*
X121367093Y-60156649D01*
X121367086Y-60156645D01*
X121232379Y-60106403D01*
X121232372Y-60106401D01*
X121172844Y-60100000D01*
X120475000Y-60100000D01*
X120475000Y-61124722D01*
X120398694Y-61080667D01*
X120284244Y-61050000D01*
X120165756Y-61050000D01*
X120051306Y-61080667D01*
X119975000Y-61124722D01*
X119975000Y-60100000D01*
X119277155Y-60100000D01*
X119217627Y-60106401D01*
X119217620Y-60106403D01*
X119082913Y-60156645D01*
X119082906Y-60156649D01*
X118967812Y-60242809D01*
X118967809Y-60242812D01*
X118881649Y-60357906D01*
X118881645Y-60357913D01*
X118831403Y-60492620D01*
X118831401Y-60492627D01*
X118825000Y-60552155D01*
X118825000Y-61250000D01*
X119849722Y-61250000D01*
X119805667Y-61326306D01*
X119775000Y-61440756D01*
X119775000Y-61559244D01*
X119805667Y-61673694D01*
X119849722Y-61750000D01*
X118825000Y-61750000D01*
X118825000Y-62447844D01*
X118831401Y-62507372D01*
X118831403Y-62507379D01*
X118881645Y-62642086D01*
X118881649Y-62642093D01*
X118967809Y-62757187D01*
X118967812Y-62757190D01*
X119082906Y-62843350D01*
X119082913Y-62843354D01*
X119217620Y-62893596D01*
X119217627Y-62893598D01*
X119277155Y-62899999D01*
X119277172Y-62900000D01*
X120074980Y-62900000D01*
X120142019Y-62919685D01*
X120187774Y-62972489D01*
X120197718Y-63041647D01*
X120168693Y-63105203D01*
X120162661Y-63111681D01*
X117526162Y-65748181D01*
X117464839Y-65781666D01*
X117438481Y-65784500D01*
X102291744Y-65784500D01*
X102224705Y-65764815D01*
X102191425Y-65733384D01*
X102121969Y-65637784D01*
X101977213Y-65493028D01*
X101811614Y-65372715D01*
X101805006Y-65369348D01*
X101718917Y-65325483D01*
X101668123Y-65277511D01*
X101651328Y-65209690D01*
X101673865Y-65143555D01*
X101718917Y-65104516D01*
X101811610Y-65057287D01*
X101832770Y-65041913D01*
X101977213Y-64936971D01*
X101977215Y-64936968D01*
X101977219Y-64936966D01*
X102121966Y-64792219D01*
X102121968Y-64792215D01*
X102121971Y-64792213D01*
X102217689Y-64660466D01*
X102242287Y-64626610D01*
X102335220Y-64444219D01*
X102398477Y-64249534D01*
X102430500Y-64047352D01*
X102430500Y-63842648D01*
X102398477Y-63640466D01*
X102396667Y-63634896D01*
X102354619Y-63505484D01*
X102335220Y-63445781D01*
X102335218Y-63445778D01*
X102335218Y-63445776D01*
X102299949Y-63376557D01*
X102242287Y-63263390D01*
X102234556Y-63252749D01*
X102121971Y-63097786D01*
X101977213Y-62953028D01*
X101811614Y-62832715D01*
X101805006Y-62829348D01*
X101718917Y-62785483D01*
X101668123Y-62737511D01*
X101651328Y-62669690D01*
X101673865Y-62603555D01*
X101718917Y-62564516D01*
X101811610Y-62517287D01*
X101907191Y-62447844D01*
X101977213Y-62396971D01*
X101977215Y-62396968D01*
X101977219Y-62396966D01*
X102121966Y-62252219D01*
X102121968Y-62252215D01*
X102121971Y-62252213D01*
X102217690Y-62120465D01*
X102242287Y-62086610D01*
X102335220Y-61904219D01*
X102398477Y-61709534D01*
X102430500Y-61507352D01*
X102430500Y-61302648D01*
X102409815Y-61172049D01*
X102398477Y-61100465D01*
X102353614Y-60962393D01*
X102335220Y-60905781D01*
X102335218Y-60905778D01*
X102335218Y-60905776D01*
X102242287Y-60723390D01*
X102168432Y-60621736D01*
X102168431Y-60621733D01*
X102121971Y-60557787D01*
X102121967Y-60557782D01*
X101977213Y-60413028D01*
X101811614Y-60292715D01*
X101805006Y-60289348D01*
X101718917Y-60245483D01*
X101668123Y-60197511D01*
X101651328Y-60129690D01*
X101673865Y-60063555D01*
X101718917Y-60024516D01*
X101811610Y-59977287D01*
X101832770Y-59961913D01*
X101977213Y-59856971D01*
X101977215Y-59856968D01*
X101977219Y-59856966D01*
X102121966Y-59712219D01*
X102121968Y-59712215D01*
X102121971Y-59712213D01*
X102217690Y-59580465D01*
X102242287Y-59546610D01*
X102335220Y-59364219D01*
X102398477Y-59169534D01*
X102430500Y-58967352D01*
X102430500Y-58762648D01*
X102407356Y-58616523D01*
X102398477Y-58560465D01*
X102354619Y-58425484D01*
X102335220Y-58365781D01*
X102335218Y-58365778D01*
X102335218Y-58365776D01*
X102299949Y-58296557D01*
X102242287Y-58183390D01*
X102234556Y-58172749D01*
X102121971Y-58017786D01*
X101977219Y-57873034D01*
X101940930Y-57846669D01*
X101898264Y-57791339D01*
X101892285Y-57721726D01*
X101924890Y-57659931D01*
X101985728Y-57625573D01*
X102000562Y-57623060D01*
X102037483Y-57619091D01*
X102172328Y-57568797D01*
X102172327Y-57568797D01*
X102172331Y-57568796D01*
X102287546Y-57482546D01*
X102373796Y-57367331D01*
X102424091Y-57232483D01*
X102430500Y-57172873D01*
X102430499Y-55477128D01*
X102424091Y-55417517D01*
X102411885Y-55384792D01*
X102407425Y-55372833D01*
X102402441Y-55303142D01*
X102435926Y-55241819D01*
X102497249Y-55208334D01*
X102523607Y-55205500D01*
X161276453Y-55205500D01*
X161343492Y-55225185D01*
G37*
%TD.AperFunction*%
%TA.AperFunction,Conductor*%
G36*
X169442539Y-20520185D02*
G01*
X169488294Y-20572989D01*
X169499500Y-20624500D01*
X169499500Y-103375500D01*
X169479815Y-103442539D01*
X169427011Y-103488294D01*
X169375500Y-103499500D01*
X23624500Y-103499500D01*
X23557461Y-103479815D01*
X23511706Y-103427011D01*
X23500500Y-103375500D01*
X23500500Y-75267483D01*
X32699500Y-75267483D01*
X32699500Y-77467501D01*
X32699501Y-77467518D01*
X32710000Y-77570296D01*
X32710001Y-77570299D01*
X32751478Y-77695466D01*
X32765186Y-77736834D01*
X32857288Y-77886156D01*
X32981344Y-78010212D01*
X33130666Y-78102314D01*
X33297203Y-78157499D01*
X33399991Y-78168000D01*
X35258480Y-78167999D01*
X35325519Y-78187684D01*
X35346161Y-78204318D01*
X45760953Y-88619111D01*
X45760954Y-88619112D01*
X45875690Y-88695776D01*
X45974290Y-88736617D01*
X46003171Y-88748580D01*
X46003172Y-88748580D01*
X46003177Y-88748582D01*
X46030045Y-88753925D01*
X46030051Y-88753926D01*
X46030091Y-88753934D01*
X46120437Y-88771905D01*
X46138506Y-88775500D01*
X46138507Y-88775500D01*
X51516944Y-88775500D01*
X51583983Y-88795185D01*
X51629738Y-88847989D01*
X51639682Y-88917147D01*
X51634875Y-88937818D01*
X51601523Y-89040461D01*
X51601523Y-89040464D01*
X51569500Y-89242648D01*
X51569500Y-89447351D01*
X51601522Y-89649534D01*
X51664781Y-89844223D01*
X51757715Y-90026613D01*
X51878028Y-90192213D01*
X52022786Y-90336971D01*
X52177749Y-90449556D01*
X52188390Y-90457287D01*
X52279840Y-90503883D01*
X52281080Y-90504515D01*
X52331876Y-90552490D01*
X52348671Y-90620311D01*
X52326134Y-90686446D01*
X52281080Y-90725485D01*
X52188386Y-90772715D01*
X52022786Y-90893028D01*
X51878028Y-91037786D01*
X51757715Y-91203386D01*
X51664781Y-91385776D01*
X51601522Y-91580465D01*
X51569500Y-91782648D01*
X51569500Y-91987351D01*
X51601522Y-92189534D01*
X51664781Y-92384223D01*
X51757715Y-92566613D01*
X51878028Y-92732213D01*
X52022786Y-92876971D01*
X52177749Y-92989556D01*
X52188390Y-92997287D01*
X52304607Y-93056503D01*
X52370776Y-93090218D01*
X52370778Y-93090218D01*
X52370781Y-93090220D01*
X52475137Y-93124127D01*
X52565465Y-93153477D01*
X52666557Y-93169488D01*
X52767648Y-93185500D01*
X52767649Y-93185500D01*
X52972351Y-93185500D01*
X52972352Y-93185500D01*
X53174534Y-93153477D01*
X53369219Y-93090220D01*
X53551610Y-92997287D01*
X53644590Y-92929732D01*
X53717213Y-92876971D01*
X53717215Y-92876968D01*
X53717219Y-92876966D01*
X53861966Y-92732219D01*
X53861968Y-92732215D01*
X53861971Y-92732213D01*
X53956441Y-92602184D01*
X53982287Y-92566610D01*
X54075220Y-92384219D01*
X54138477Y-92189534D01*
X54170500Y-91987352D01*
X54170500Y-91782648D01*
X54138477Y-91580466D01*
X54075220Y-91385781D01*
X54075218Y-91385778D01*
X54075218Y-91385776D01*
X54025608Y-91288412D01*
X53982287Y-91203390D01*
X53974556Y-91192749D01*
X53861971Y-91037786D01*
X53717213Y-90893028D01*
X53551614Y-90772715D01*
X53545006Y-90769348D01*
X53458917Y-90725483D01*
X53408123Y-90677511D01*
X53391328Y-90609690D01*
X53413865Y-90543555D01*
X53458917Y-90504516D01*
X53551610Y-90457287D01*
X53572770Y-90441913D01*
X53717213Y-90336971D01*
X53717215Y-90336968D01*
X53717219Y-90336966D01*
X53861966Y-90192219D01*
X53861968Y-90192215D01*
X53861971Y-90192213D01*
X53956441Y-90062184D01*
X53982287Y-90026610D01*
X54075220Y-89844219D01*
X54138477Y-89649534D01*
X54170500Y-89447352D01*
X54170500Y-89242648D01*
X54138477Y-89040466D01*
X54138476Y-89040462D01*
X54138476Y-89040461D01*
X54105125Y-88937818D01*
X54103130Y-88867977D01*
X54139210Y-88808144D01*
X54201911Y-88777316D01*
X54223056Y-88775500D01*
X99776944Y-88775500D01*
X99843983Y-88795185D01*
X99889738Y-88847989D01*
X99899682Y-88917147D01*
X99894875Y-88937818D01*
X99861523Y-89040461D01*
X99861523Y-89040464D01*
X99829500Y-89242648D01*
X99829500Y-89447351D01*
X99861522Y-89649534D01*
X99924781Y-89844223D01*
X100017715Y-90026613D01*
X100138028Y-90192213D01*
X100282786Y-90336971D01*
X100437749Y-90449556D01*
X100448390Y-90457287D01*
X100539840Y-90503883D01*
X100541080Y-90504515D01*
X100591876Y-90552490D01*
X100608671Y-90620311D01*
X100586134Y-90686446D01*
X100541080Y-90725485D01*
X100448386Y-90772715D01*
X100282786Y-90893028D01*
X100138028Y-91037786D01*
X100017715Y-91203386D01*
X99924781Y-91385776D01*
X99861522Y-91580465D01*
X99829500Y-91782648D01*
X99829500Y-91987351D01*
X99861522Y-92189534D01*
X99924781Y-92384223D01*
X100017715Y-92566613D01*
X100138028Y-92732213D01*
X100282786Y-92876971D01*
X100437749Y-92989556D01*
X100448390Y-92997287D01*
X100564607Y-93056503D01*
X100630776Y-93090218D01*
X100630778Y-93090218D01*
X100630781Y-93090220D01*
X100735137Y-93124127D01*
X100825465Y-93153477D01*
X100926557Y-93169488D01*
X101027648Y-93185500D01*
X101027649Y-93185500D01*
X101232351Y-93185500D01*
X101232352Y-93185500D01*
X101434534Y-93153477D01*
X101629219Y-93090220D01*
X101811610Y-92997287D01*
X101904590Y-92929732D01*
X101977213Y-92876971D01*
X101977215Y-92876968D01*
X101977219Y-92876966D01*
X102121966Y-92732219D01*
X102121968Y-92732215D01*
X102121971Y-92732213D01*
X102216441Y-92602184D01*
X102242287Y-92566610D01*
X102335220Y-92384219D01*
X102398477Y-92189534D01*
X102430500Y-91987352D01*
X102430500Y-91782648D01*
X102398477Y-91580466D01*
X102335220Y-91385781D01*
X102335218Y-91385778D01*
X102335218Y-91385776D01*
X102285608Y-91288412D01*
X102242287Y-91203390D01*
X102234556Y-91192749D01*
X102121971Y-91037786D01*
X101977213Y-90893028D01*
X101811614Y-90772715D01*
X101805006Y-90769348D01*
X101718917Y-90725483D01*
X101668123Y-90677511D01*
X101651328Y-90609690D01*
X101673865Y-90543555D01*
X101718917Y-90504516D01*
X101811610Y-90457287D01*
X101832770Y-90441913D01*
X101977213Y-90336971D01*
X101977215Y-90336968D01*
X101977219Y-90336966D01*
X102121966Y-90192219D01*
X102121968Y-90192215D01*
X102121971Y-90192213D01*
X102216441Y-90062184D01*
X102242287Y-90026610D01*
X102335220Y-89844219D01*
X102398477Y-89649534D01*
X102430500Y-89447352D01*
X102430500Y-89242648D01*
X102398477Y-89040466D01*
X102398476Y-89040462D01*
X102398476Y-89040461D01*
X102365125Y-88937818D01*
X102363130Y-88867977D01*
X102399210Y-88808144D01*
X102461911Y-88777316D01*
X102483056Y-88775500D01*
X112036481Y-88775500D01*
X112103520Y-88795185D01*
X112124162Y-88811819D01*
X113258886Y-89946542D01*
X113338954Y-90026610D01*
X113356459Y-90044115D01*
X113471182Y-90120771D01*
X113471186Y-90120773D01*
X113471189Y-90120775D01*
X113545866Y-90151707D01*
X113598671Y-90173580D01*
X113625591Y-90178934D01*
X113722630Y-90198237D01*
X113734006Y-90200500D01*
X113734007Y-90200500D01*
X115934371Y-90200500D01*
X116001410Y-90220185D01*
X116047165Y-90272989D01*
X116057109Y-90342147D01*
X116052302Y-90362818D01*
X116022753Y-90453759D01*
X115997215Y-90615000D01*
X115989500Y-90663713D01*
X115989500Y-90876287D01*
X116022754Y-91086243D01*
X116060816Y-91203386D01*
X116088444Y-91288414D01*
X116184951Y-91477820D01*
X116309890Y-91649786D01*
X116460213Y-91800109D01*
X116632182Y-91925050D01*
X116640946Y-91929516D01*
X116691742Y-91977491D01*
X116708536Y-92045312D01*
X116685998Y-92111447D01*
X116640946Y-92150484D01*
X116632182Y-92154949D01*
X116460213Y-92279890D01*
X116309890Y-92430213D01*
X116184951Y-92602179D01*
X116088444Y-92791585D01*
X116022753Y-92993760D01*
X115989500Y-93203713D01*
X115989500Y-93416286D01*
X116022753Y-93626239D01*
X116088444Y-93828414D01*
X116184951Y-94017820D01*
X116309890Y-94189786D01*
X116460213Y-94340109D01*
X116632179Y-94465048D01*
X116632181Y-94465049D01*
X116632184Y-94465051D01*
X116821588Y-94561557D01*
X117023757Y-94627246D01*
X117233713Y-94660500D01*
X117233714Y-94660500D01*
X117446286Y-94660500D01*
X117446287Y-94660500D01*
X117656243Y-94627246D01*
X117858412Y-94561557D01*
X118047816Y-94465051D01*
X118069789Y-94449086D01*
X118219786Y-94340109D01*
X118219788Y-94340106D01*
X118219792Y-94340104D01*
X118370104Y-94189792D01*
X118370106Y-94189788D01*
X118370109Y-94189786D01*
X118495048Y-94017820D01*
X118495047Y-94017820D01*
X118495051Y-94017816D01*
X118499514Y-94009054D01*
X118547488Y-93958259D01*
X118615308Y-93941463D01*
X118681444Y-93963999D01*
X118720486Y-94009056D01*
X118724951Y-94017820D01*
X118849890Y-94189786D01*
X119000213Y-94340109D01*
X119172179Y-94465048D01*
X119172181Y-94465049D01*
X119172184Y-94465051D01*
X119361588Y-94561557D01*
X119563757Y-94627246D01*
X119773713Y-94660500D01*
X119773714Y-94660500D01*
X119986286Y-94660500D01*
X119986287Y-94660500D01*
X120196243Y-94627246D01*
X120398412Y-94561557D01*
X120587816Y-94465051D01*
X120609789Y-94449086D01*
X120759786Y-94340109D01*
X120759788Y-94340106D01*
X120759792Y-94340104D01*
X120910104Y-94189792D01*
X120910106Y-94189788D01*
X120910109Y-94189786D01*
X121035048Y-94017820D01*
X121035047Y-94017820D01*
X121035051Y-94017816D01*
X121131557Y-93828412D01*
X121197246Y-93626243D01*
X121230500Y-93416287D01*
X121230500Y-93203713D01*
X121197246Y-92993757D01*
X121131557Y-92791588D01*
X121035051Y-92602184D01*
X121035049Y-92602181D01*
X121035048Y-92602179D01*
X120910109Y-92430213D01*
X120759786Y-92279890D01*
X120587820Y-92154951D01*
X120587115Y-92154591D01*
X120579054Y-92150485D01*
X120528259Y-92102512D01*
X120511463Y-92034692D01*
X120533999Y-91968556D01*
X120579054Y-91929515D01*
X120587816Y-91925051D01*
X120609789Y-91909086D01*
X120759786Y-91800109D01*
X120759788Y-91800106D01*
X120759792Y-91800104D01*
X120910104Y-91649792D01*
X120910106Y-91649788D01*
X120910109Y-91649786D01*
X121035048Y-91477820D01*
X121035047Y-91477820D01*
X121035051Y-91477816D01*
X121131557Y-91288412D01*
X121197246Y-91086243D01*
X121230500Y-90876287D01*
X121230500Y-90663713D01*
X121197246Y-90453757D01*
X121131557Y-90251588D01*
X121035051Y-90062184D01*
X121035049Y-90062181D01*
X121035048Y-90062179D01*
X120910109Y-89890213D01*
X120759786Y-89739890D01*
X120587820Y-89614951D01*
X120587115Y-89614591D01*
X120579054Y-89610485D01*
X120528259Y-89562512D01*
X120511463Y-89494692D01*
X120533999Y-89428556D01*
X120579054Y-89389515D01*
X120587816Y-89385051D01*
X120609789Y-89369086D01*
X120759786Y-89260109D01*
X120759788Y-89260106D01*
X120759792Y-89260104D01*
X120910104Y-89109792D01*
X120910106Y-89109788D01*
X120910109Y-89109786D01*
X121035050Y-88937818D01*
X121045582Y-88917147D01*
X121131557Y-88748412D01*
X121197246Y-88546243D01*
X121230500Y-88336287D01*
X121230500Y-88123713D01*
X121197246Y-87913757D01*
X121131557Y-87711588D01*
X121035051Y-87522184D01*
X121035049Y-87522181D01*
X121035048Y-87522179D01*
X120910109Y-87350213D01*
X120759786Y-87199890D01*
X120587820Y-87074951D01*
X120587115Y-87074591D01*
X120579054Y-87070485D01*
X120528259Y-87022512D01*
X120511463Y-86954692D01*
X120533999Y-86888556D01*
X120579054Y-86849515D01*
X120587816Y-86845051D01*
X120674471Y-86782093D01*
X120759786Y-86720109D01*
X120759788Y-86720106D01*
X120759792Y-86720104D01*
X120910104Y-86569792D01*
X120910106Y-86569788D01*
X120910109Y-86569786D01*
X121035048Y-86397820D01*
X121035047Y-86397820D01*
X121035051Y-86397816D01*
X121131557Y-86208412D01*
X121197246Y-86006243D01*
X121230500Y-85796287D01*
X121230500Y-85583713D01*
X121197246Y-85373757D01*
X121131557Y-85171588D01*
X121035051Y-84982184D01*
X121035049Y-84982181D01*
X121035048Y-84982179D01*
X120910109Y-84810213D01*
X120759786Y-84659890D01*
X120587820Y-84534951D01*
X120398414Y-84438444D01*
X120398413Y-84438443D01*
X120398412Y-84438443D01*
X120196243Y-84372754D01*
X120196241Y-84372753D01*
X120196240Y-84372753D01*
X120034957Y-84347208D01*
X119986287Y-84339500D01*
X119773713Y-84339500D01*
X119725042Y-84347208D01*
X119563760Y-84372753D01*
X119361585Y-84438444D01*
X119172179Y-84534951D01*
X119000215Y-84659889D01*
X118886285Y-84773819D01*
X118824962Y-84807303D01*
X118755270Y-84802319D01*
X118699337Y-84760447D01*
X118682422Y-84729470D01*
X118633354Y-84597913D01*
X118633350Y-84597906D01*
X118547190Y-84482812D01*
X118547187Y-84482809D01*
X118432093Y-84396649D01*
X118432086Y-84396645D01*
X118297379Y-84346403D01*
X118297372Y-84346401D01*
X118237844Y-84340000D01*
X117590000Y-84340000D01*
X117590000Y-85256988D01*
X117532993Y-85224075D01*
X117405826Y-85190000D01*
X117274174Y-85190000D01*
X117147007Y-85224075D01*
X117090000Y-85256988D01*
X117090000Y-84340000D01*
X116442155Y-84340000D01*
X116382627Y-84346401D01*
X116382620Y-84346403D01*
X116247913Y-84396645D01*
X116247906Y-84396649D01*
X116132812Y-84482809D01*
X116132809Y-84482812D01*
X116046649Y-84597906D01*
X116046645Y-84597913D01*
X115996403Y-84732620D01*
X115996401Y-84732627D01*
X115990000Y-84792155D01*
X115990000Y-85440000D01*
X116906988Y-85440000D01*
X116874075Y-85497007D01*
X116840000Y-85624174D01*
X116840000Y-85755826D01*
X116874075Y-85882993D01*
X116906988Y-85940000D01*
X115990000Y-85940000D01*
X115990000Y-86587844D01*
X115996401Y-86647372D01*
X115996403Y-86647379D01*
X116046645Y-86782086D01*
X116046649Y-86782093D01*
X116132809Y-86897187D01*
X116132812Y-86897190D01*
X116247906Y-86983350D01*
X116247913Y-86983354D01*
X116379470Y-87032422D01*
X116435404Y-87074293D01*
X116459821Y-87139758D01*
X116444969Y-87208031D01*
X116423819Y-87236285D01*
X116309889Y-87350215D01*
X116184951Y-87522179D01*
X116088444Y-87711585D01*
X116022753Y-87913760D01*
X115989500Y-88123713D01*
X115989500Y-88336286D01*
X116022753Y-88546240D01*
X116052302Y-88637182D01*
X116054297Y-88707023D01*
X116018216Y-88766856D01*
X115955515Y-88797684D01*
X115934371Y-88799500D01*
X114144518Y-88799500D01*
X114077479Y-88779815D01*
X114056837Y-88763181D01*
X112824546Y-87530888D01*
X112824545Y-87530887D01*
X112709807Y-87454222D01*
X112582332Y-87401421D01*
X112582322Y-87401418D01*
X112446996Y-87374500D01*
X112446994Y-87374500D01*
X112446993Y-87374500D01*
X102483056Y-87374500D01*
X102416017Y-87354815D01*
X102370262Y-87302011D01*
X102360318Y-87232853D01*
X102365125Y-87212182D01*
X102398476Y-87109538D01*
X102398476Y-87109537D01*
X102398477Y-87109534D01*
X102430500Y-86907352D01*
X102430500Y-86702648D01*
X102411871Y-86585030D01*
X102398477Y-86500465D01*
X102335218Y-86305776D01*
X102285608Y-86208412D01*
X102242287Y-86123390D01*
X102218100Y-86090099D01*
X102121971Y-85957786D01*
X101977213Y-85813028D01*
X101811614Y-85692715D01*
X101784292Y-85678794D01*
X101718917Y-85645483D01*
X101668123Y-85597511D01*
X101651328Y-85529690D01*
X101673865Y-85463555D01*
X101718917Y-85424516D01*
X101811610Y-85377287D01*
X101832770Y-85361913D01*
X101977213Y-85256971D01*
X101977215Y-85256968D01*
X101977219Y-85256966D01*
X102121966Y-85112219D01*
X102121968Y-85112215D01*
X102121971Y-85112213D01*
X102216441Y-84982184D01*
X102242287Y-84946610D01*
X102335220Y-84764219D01*
X102389256Y-84597913D01*
X102398476Y-84569538D01*
X102398476Y-84569537D01*
X102398477Y-84569534D01*
X102430500Y-84367352D01*
X102430500Y-84162648D01*
X102398477Y-83960466D01*
X102398476Y-83960462D01*
X102398476Y-83960461D01*
X102365125Y-83857818D01*
X102363130Y-83787977D01*
X102399210Y-83728144D01*
X102461911Y-83697316D01*
X102483056Y-83695500D01*
X154398996Y-83695500D01*
X154490040Y-83677389D01*
X154534328Y-83668580D01*
X154598069Y-83642177D01*
X154661807Y-83615777D01*
X154661808Y-83615776D01*
X154661811Y-83615775D01*
X154776543Y-83539114D01*
X160937819Y-77377836D01*
X160999142Y-77344352D01*
X161068834Y-77349336D01*
X161124767Y-77391208D01*
X161149184Y-77456672D01*
X161149500Y-77465518D01*
X161149500Y-77471287D01*
X161154201Y-77500968D01*
X161177242Y-77646446D01*
X161182754Y-77681243D01*
X161226850Y-77816957D01*
X161248444Y-77883414D01*
X161344951Y-78072820D01*
X161469890Y-78244786D01*
X161620213Y-78395109D01*
X161792182Y-78520050D01*
X161800946Y-78524516D01*
X161851742Y-78572491D01*
X161868536Y-78640312D01*
X161845998Y-78706447D01*
X161800946Y-78745484D01*
X161792182Y-78749949D01*
X161620213Y-78874890D01*
X161469890Y-79025213D01*
X161344951Y-79197179D01*
X161248444Y-79386585D01*
X161182753Y-79588760D01*
X161156790Y-79752684D01*
X161149500Y-79798713D01*
X161149500Y-80011287D01*
X161182754Y-80221243D01*
X161237658Y-80390220D01*
X161248444Y-80423414D01*
X161344951Y-80612820D01*
X161469890Y-80784786D01*
X161620213Y-80935109D01*
X161792179Y-81060048D01*
X161792181Y-81060049D01*
X161792184Y-81060051D01*
X161981588Y-81156557D01*
X162183757Y-81222246D01*
X162393713Y-81255500D01*
X162393714Y-81255500D01*
X162606286Y-81255500D01*
X162606287Y-81255500D01*
X162816243Y-81222246D01*
X163018412Y-81156557D01*
X163207816Y-81060051D01*
X163325181Y-80974781D01*
X163379786Y-80935109D01*
X163379788Y-80935106D01*
X163379792Y-80935104D01*
X163530104Y-80784792D01*
X163530106Y-80784788D01*
X163530109Y-80784786D01*
X163655048Y-80612820D01*
X163655047Y-80612820D01*
X163655051Y-80612816D01*
X163751557Y-80423412D01*
X163817246Y-80221243D01*
X163850500Y-80011287D01*
X163850500Y-79798713D01*
X163817246Y-79588757D01*
X163751557Y-79386588D01*
X163655051Y-79197184D01*
X163655049Y-79197181D01*
X163655048Y-79197179D01*
X163530109Y-79025213D01*
X163379786Y-78874890D01*
X163207820Y-78749951D01*
X163207115Y-78749591D01*
X163199054Y-78745485D01*
X163148259Y-78697512D01*
X163131463Y-78629692D01*
X163153999Y-78563556D01*
X163199054Y-78524515D01*
X163207816Y-78520051D01*
X163230758Y-78503383D01*
X163379786Y-78395109D01*
X163379788Y-78395106D01*
X163379792Y-78395104D01*
X163530104Y-78244792D01*
X163530106Y-78244788D01*
X163530109Y-78244786D01*
X163655048Y-78072820D01*
X163655047Y-78072820D01*
X163655051Y-78072816D01*
X163751557Y-77883412D01*
X163817246Y-77681243D01*
X163850500Y-77471287D01*
X163850500Y-77258713D01*
X163817246Y-77048757D01*
X163751557Y-76846588D01*
X163655051Y-76657184D01*
X163655049Y-76657181D01*
X163655048Y-76657179D01*
X163530109Y-76485213D01*
X163379786Y-76334890D01*
X163207820Y-76209951D01*
X163207115Y-76209591D01*
X163199054Y-76205485D01*
X163148259Y-76157512D01*
X163131463Y-76089692D01*
X163153999Y-76023556D01*
X163199054Y-75984515D01*
X163207816Y-75980051D01*
X163230754Y-75963386D01*
X163379786Y-75855109D01*
X163379788Y-75855106D01*
X163379792Y-75855104D01*
X163530104Y-75704792D01*
X163530106Y-75704788D01*
X163530109Y-75704786D01*
X163655048Y-75532820D01*
X163655047Y-75532820D01*
X163655051Y-75532816D01*
X163751557Y-75343412D01*
X163817246Y-75141243D01*
X163850500Y-74931287D01*
X163850500Y-74718713D01*
X163817246Y-74508757D01*
X163751557Y-74306588D01*
X163655051Y-74117184D01*
X163655049Y-74117181D01*
X163655048Y-74117179D01*
X163530109Y-73945213D01*
X163379786Y-73794890D01*
X163207820Y-73669951D01*
X163207115Y-73669591D01*
X163199054Y-73665485D01*
X163148259Y-73617512D01*
X163131463Y-73549692D01*
X163153999Y-73483556D01*
X163199054Y-73444515D01*
X163207816Y-73440051D01*
X163314390Y-73362621D01*
X163379786Y-73315109D01*
X163379788Y-73315106D01*
X163379792Y-73315104D01*
X163530104Y-73164792D01*
X163530106Y-73164788D01*
X163530109Y-73164786D01*
X163655048Y-72992820D01*
X163655047Y-72992820D01*
X163655051Y-72992816D01*
X163751557Y-72803412D01*
X163817246Y-72601243D01*
X163850500Y-72391287D01*
X163850500Y-72178713D01*
X163817246Y-71968757D01*
X163751557Y-71766588D01*
X163655051Y-71577184D01*
X163655049Y-71577181D01*
X163655048Y-71577179D01*
X163530109Y-71405213D01*
X163379786Y-71254890D01*
X163207820Y-71129951D01*
X163207115Y-71129591D01*
X163199054Y-71125485D01*
X163148259Y-71077512D01*
X163131463Y-71009692D01*
X163153999Y-70943556D01*
X163199054Y-70904515D01*
X163207816Y-70900051D01*
X163259347Y-70862612D01*
X163379786Y-70775109D01*
X163379788Y-70775106D01*
X163379792Y-70775104D01*
X163530104Y-70624792D01*
X163530106Y-70624788D01*
X163530109Y-70624786D01*
X163655048Y-70452820D01*
X163655047Y-70452820D01*
X163655051Y-70452816D01*
X163751557Y-70263412D01*
X163817246Y-70061243D01*
X163850500Y-69851287D01*
X163850500Y-69638713D01*
X163817246Y-69428757D01*
X163751557Y-69226588D01*
X163655051Y-69037184D01*
X163655049Y-69037181D01*
X163655048Y-69037179D01*
X163530109Y-68865213D01*
X163379786Y-68714890D01*
X163207820Y-68589951D01*
X163207115Y-68589591D01*
X163199054Y-68585485D01*
X163148259Y-68537512D01*
X163131463Y-68469692D01*
X163153999Y-68403556D01*
X163199054Y-68364515D01*
X163207816Y-68360051D01*
X163230754Y-68343386D01*
X163379786Y-68235109D01*
X163379788Y-68235106D01*
X163379792Y-68235104D01*
X163530104Y-68084792D01*
X163530106Y-68084788D01*
X163530109Y-68084786D01*
X163655048Y-67912820D01*
X163655047Y-67912820D01*
X163655051Y-67912816D01*
X163751557Y-67723412D01*
X163817246Y-67521243D01*
X163850500Y-67311287D01*
X163850500Y-67098713D01*
X163817246Y-66888757D01*
X163751557Y-66686588D01*
X163655051Y-66497184D01*
X163655049Y-66497181D01*
X163655048Y-66497179D01*
X163530109Y-66325213D01*
X163379786Y-66174890D01*
X163207820Y-66049951D01*
X163207115Y-66049591D01*
X163199054Y-66045485D01*
X163148259Y-65997512D01*
X163131463Y-65929692D01*
X163153999Y-65863556D01*
X163199054Y-65824515D01*
X163207816Y-65820051D01*
X163260649Y-65781666D01*
X163379786Y-65695109D01*
X163379788Y-65695106D01*
X163379792Y-65695104D01*
X163530104Y-65544792D01*
X163530106Y-65544788D01*
X163530109Y-65544786D01*
X163655048Y-65372820D01*
X163655047Y-65372820D01*
X163655051Y-65372816D01*
X163751557Y-65183412D01*
X163817246Y-64981243D01*
X163850500Y-64771287D01*
X163850500Y-64558713D01*
X163817246Y-64348757D01*
X163751557Y-64146588D01*
X163655051Y-63957184D01*
X163655049Y-63957181D01*
X163655048Y-63957179D01*
X163530109Y-63785213D01*
X163379786Y-63634890D01*
X163207820Y-63509951D01*
X163207115Y-63509591D01*
X163199054Y-63505485D01*
X163148259Y-63457512D01*
X163131463Y-63389692D01*
X163153999Y-63323556D01*
X163199054Y-63284515D01*
X163207816Y-63280051D01*
X163230754Y-63263386D01*
X163379786Y-63155109D01*
X163379788Y-63155106D01*
X163379792Y-63155104D01*
X163530104Y-63004792D01*
X163530106Y-63004788D01*
X163530109Y-63004786D01*
X163655048Y-62832820D01*
X163655047Y-62832820D01*
X163655051Y-62832816D01*
X163751557Y-62643412D01*
X163817246Y-62441243D01*
X163850500Y-62231287D01*
X163850500Y-62018713D01*
X163817246Y-61808757D01*
X163751557Y-61606588D01*
X163655051Y-61417184D01*
X163655049Y-61417181D01*
X163655048Y-61417179D01*
X163530109Y-61245213D01*
X163379786Y-61094890D01*
X163207820Y-60969951D01*
X163207115Y-60969591D01*
X163199054Y-60965485D01*
X163148259Y-60917512D01*
X163131463Y-60849692D01*
X163153999Y-60783556D01*
X163199054Y-60744515D01*
X163207816Y-60740051D01*
X163230754Y-60723386D01*
X163379786Y-60615109D01*
X163379788Y-60615106D01*
X163379792Y-60615104D01*
X163530104Y-60464792D01*
X163530106Y-60464788D01*
X163530109Y-60464786D01*
X163655048Y-60292820D01*
X163655047Y-60292820D01*
X163655051Y-60292816D01*
X163751557Y-60103412D01*
X163817246Y-59901243D01*
X163850500Y-59691287D01*
X163850500Y-59478713D01*
X163817246Y-59268757D01*
X163751557Y-59066588D01*
X163655051Y-58877184D01*
X163655049Y-58877181D01*
X163655048Y-58877179D01*
X163530109Y-58705213D01*
X163379786Y-58554890D01*
X163207820Y-58429951D01*
X163207115Y-58429591D01*
X163199054Y-58425485D01*
X163148259Y-58377512D01*
X163131463Y-58309692D01*
X163153999Y-58243556D01*
X163199054Y-58204515D01*
X163207816Y-58200051D01*
X163230754Y-58183386D01*
X163379786Y-58075109D01*
X163379788Y-58075106D01*
X163379792Y-58075104D01*
X163530104Y-57924792D01*
X163530106Y-57924788D01*
X163530109Y-57924786D01*
X163655048Y-57752820D01*
X163655047Y-57752820D01*
X163655051Y-57752816D01*
X163751557Y-57563412D01*
X163817246Y-57361243D01*
X163850500Y-57151287D01*
X163850500Y-56938713D01*
X163817246Y-56728757D01*
X163751557Y-56526588D01*
X163655051Y-56337184D01*
X163655049Y-56337181D01*
X163655048Y-56337179D01*
X163530109Y-56165213D01*
X163379786Y-56014890D01*
X163207820Y-55889951D01*
X163207115Y-55889591D01*
X163199054Y-55885485D01*
X163148259Y-55837512D01*
X163131463Y-55769692D01*
X163153999Y-55703556D01*
X163199054Y-55664515D01*
X163207816Y-55660051D01*
X163229789Y-55644086D01*
X163379786Y-55535109D01*
X163379788Y-55535106D01*
X163379792Y-55535104D01*
X163530104Y-55384792D01*
X163530106Y-55384788D01*
X163530109Y-55384786D01*
X163655048Y-55212820D01*
X163655047Y-55212820D01*
X163655051Y-55212816D01*
X163751557Y-55023412D01*
X163817246Y-54821243D01*
X163850500Y-54611287D01*
X163850500Y-54398713D01*
X163817246Y-54188757D01*
X163751557Y-53986588D01*
X163655051Y-53797184D01*
X163655049Y-53797181D01*
X163655048Y-53797179D01*
X163530109Y-53625213D01*
X163379786Y-53474890D01*
X163207820Y-53349951D01*
X163207115Y-53349591D01*
X163199054Y-53345485D01*
X163148259Y-53297512D01*
X163131463Y-53229692D01*
X163153999Y-53163556D01*
X163199054Y-53124515D01*
X163207816Y-53120051D01*
X163229789Y-53104086D01*
X163379786Y-52995109D01*
X163379788Y-52995106D01*
X163379792Y-52995104D01*
X163530104Y-52844792D01*
X163530106Y-52844788D01*
X163530109Y-52844786D01*
X163655048Y-52672820D01*
X163655047Y-52672820D01*
X163655051Y-52672816D01*
X163751557Y-52483412D01*
X163817246Y-52281243D01*
X163850500Y-52071287D01*
X163850500Y-51858713D01*
X163817246Y-51648757D01*
X163751557Y-51446588D01*
X163655051Y-51257184D01*
X163655049Y-51257181D01*
X163655048Y-51257179D01*
X163530109Y-51085213D01*
X163379786Y-50934890D01*
X163207820Y-50809951D01*
X163207115Y-50809591D01*
X163199054Y-50805485D01*
X163148259Y-50757512D01*
X163131463Y-50689692D01*
X163153999Y-50623556D01*
X163199054Y-50584515D01*
X163207816Y-50580051D01*
X163229789Y-50564086D01*
X163379786Y-50455109D01*
X163379788Y-50455106D01*
X163379792Y-50455104D01*
X163530104Y-50304792D01*
X163530106Y-50304788D01*
X163530109Y-50304786D01*
X163655048Y-50132820D01*
X163655047Y-50132820D01*
X163655051Y-50132816D01*
X163751557Y-49943412D01*
X163817246Y-49741243D01*
X163850500Y-49531287D01*
X163850500Y-49318713D01*
X163817246Y-49108757D01*
X163751557Y-48906588D01*
X163655051Y-48717184D01*
X163655049Y-48717181D01*
X163655048Y-48717179D01*
X163530109Y-48545213D01*
X163379786Y-48394890D01*
X163207820Y-48269951D01*
X163207115Y-48269591D01*
X163199054Y-48265485D01*
X163148259Y-48217512D01*
X163131463Y-48149692D01*
X163153999Y-48083556D01*
X163199054Y-48044515D01*
X163207816Y-48040051D01*
X163229789Y-48024086D01*
X163379786Y-47915109D01*
X163379788Y-47915106D01*
X163379792Y-47915104D01*
X163530104Y-47764792D01*
X163530106Y-47764788D01*
X163530109Y-47764786D01*
X163655048Y-47592820D01*
X163655047Y-47592820D01*
X163655051Y-47592816D01*
X163751557Y-47403412D01*
X163817246Y-47201243D01*
X163850500Y-46991287D01*
X163850500Y-46778713D01*
X163817246Y-46568757D01*
X163751557Y-46366588D01*
X163655051Y-46177184D01*
X163655049Y-46177181D01*
X163655048Y-46177179D01*
X163530109Y-46005213D01*
X163379786Y-45854890D01*
X163207820Y-45729951D01*
X163207115Y-45729591D01*
X163199054Y-45725485D01*
X163148259Y-45677512D01*
X163131463Y-45609692D01*
X163153999Y-45543556D01*
X163199054Y-45504515D01*
X163207816Y-45500051D01*
X163284986Y-45443984D01*
X163379786Y-45375109D01*
X163379788Y-45375106D01*
X163379792Y-45375104D01*
X163530104Y-45224792D01*
X163530106Y-45224788D01*
X163530109Y-45224786D01*
X163655048Y-45052820D01*
X163655047Y-45052820D01*
X163655051Y-45052816D01*
X163751557Y-44863412D01*
X163817246Y-44661243D01*
X163850500Y-44451287D01*
X163850500Y-44238713D01*
X163817246Y-44028757D01*
X163751557Y-43826588D01*
X163655051Y-43637184D01*
X163655049Y-43637181D01*
X163655048Y-43637179D01*
X163530109Y-43465213D01*
X163416181Y-43351285D01*
X163382696Y-43289962D01*
X163387680Y-43220270D01*
X163429552Y-43164337D01*
X163460529Y-43147422D01*
X163592086Y-43098354D01*
X163592093Y-43098350D01*
X163707187Y-43012190D01*
X163707190Y-43012187D01*
X163793350Y-42897093D01*
X163793354Y-42897086D01*
X163843596Y-42762379D01*
X163843598Y-42762372D01*
X163849999Y-42702844D01*
X163850000Y-42702827D01*
X163850000Y-42055000D01*
X162933012Y-42055000D01*
X162965925Y-41997993D01*
X163000000Y-41870826D01*
X163000000Y-41739174D01*
X162965925Y-41612007D01*
X162933012Y-41555000D01*
X163850000Y-41555000D01*
X163850000Y-40907172D01*
X163849999Y-40907155D01*
X163843598Y-40847627D01*
X163843596Y-40847620D01*
X163793354Y-40712913D01*
X163793350Y-40712906D01*
X163707190Y-40597812D01*
X163707187Y-40597809D01*
X163592093Y-40511649D01*
X163592086Y-40511645D01*
X163457379Y-40461403D01*
X163457372Y-40461401D01*
X163397844Y-40455000D01*
X162750000Y-40455000D01*
X162750000Y-41371988D01*
X162692993Y-41339075D01*
X162565826Y-41305000D01*
X162434174Y-41305000D01*
X162307007Y-41339075D01*
X162250000Y-41371988D01*
X162250000Y-40455000D01*
X161602155Y-40455000D01*
X161542627Y-40461401D01*
X161542620Y-40461403D01*
X161407913Y-40511645D01*
X161407906Y-40511649D01*
X161292812Y-40597809D01*
X161292809Y-40597812D01*
X161206649Y-40712906D01*
X161206645Y-40712913D01*
X161156403Y-40847620D01*
X161156401Y-40847627D01*
X161150000Y-40907155D01*
X161150000Y-41555000D01*
X162066988Y-41555000D01*
X162034075Y-41612007D01*
X162000000Y-41739174D01*
X162000000Y-41870826D01*
X162034075Y-41997993D01*
X162066988Y-42055000D01*
X161252019Y-42055000D01*
X161184980Y-42035315D01*
X161164338Y-42018681D01*
X160137189Y-40991532D01*
X159061546Y-39915888D01*
X159061545Y-39915887D01*
X158946807Y-39839222D01*
X158819332Y-39786421D01*
X158819322Y-39786418D01*
X158683996Y-39759500D01*
X158683994Y-39759500D01*
X158683993Y-39759500D01*
X147407859Y-39759500D01*
X147340820Y-39739815D01*
X147307541Y-39708385D01*
X147275950Y-39664904D01*
X147275946Y-39664899D01*
X147140104Y-39529057D01*
X147140102Y-39529055D01*
X146984681Y-39416135D01*
X146813506Y-39328916D01*
X146630802Y-39269553D01*
X146535928Y-39254526D01*
X146441055Y-39239500D01*
X146248945Y-39239500D01*
X146185696Y-39249517D01*
X146059197Y-39269553D01*
X145876493Y-39328916D01*
X145705318Y-39416135D01*
X145616645Y-39480560D01*
X145549898Y-39529055D01*
X145549896Y-39529057D01*
X145549895Y-39529057D01*
X145414057Y-39664895D01*
X145414057Y-39664896D01*
X145414055Y-39664898D01*
X145414051Y-39664904D01*
X145301135Y-39820318D01*
X145213916Y-39991493D01*
X145154553Y-40174197D01*
X145124500Y-40363945D01*
X145124500Y-40556054D01*
X145154553Y-40745802D01*
X145213916Y-40928506D01*
X145213918Y-40928509D01*
X145301135Y-41099681D01*
X145414055Y-41255102D01*
X145549898Y-41390945D01*
X145705319Y-41503865D01*
X145805677Y-41555000D01*
X145876493Y-41591083D01*
X145940892Y-41612007D01*
X146059199Y-41650447D01*
X146248945Y-41680500D01*
X146248946Y-41680500D01*
X146441054Y-41680500D01*
X146441055Y-41680500D01*
X146630801Y-41650447D01*
X146813509Y-41591082D01*
X146984681Y-41503865D01*
X147140102Y-41390945D01*
X147275945Y-41255102D01*
X147278404Y-41251716D01*
X147307541Y-41211615D01*
X147362871Y-41168949D01*
X147407859Y-41160500D01*
X158273481Y-41160500D01*
X158340520Y-41180185D01*
X158361162Y-41196819D01*
X161139492Y-43975149D01*
X161141712Y-43979214D01*
X161145609Y-43981725D01*
X161158303Y-44009599D01*
X161172977Y-44036472D01*
X161173180Y-44042267D01*
X161174567Y-44045311D01*
X161174338Y-44075154D01*
X161174530Y-44080605D01*
X161174401Y-44081493D01*
X161149500Y-44238713D01*
X161149500Y-44253411D01*
X161148219Y-44262255D01*
X161137242Y-44286225D01*
X161129815Y-44311519D01*
X161122925Y-44317489D01*
X161119128Y-44325781D01*
X161096929Y-44340014D01*
X161077011Y-44357274D01*
X161067988Y-44358571D01*
X161060311Y-44363494D01*
X161033944Y-44363466D01*
X161007853Y-44367218D01*
X160999559Y-44363430D01*
X160990441Y-44363421D01*
X160968276Y-44349144D01*
X160944297Y-44338193D01*
X160937819Y-44332161D01*
X159061545Y-42455887D01*
X158946807Y-42379222D01*
X158819332Y-42326421D01*
X158819322Y-42326418D01*
X158683996Y-42299500D01*
X158683994Y-42299500D01*
X158683993Y-42299500D01*
X152487859Y-42299500D01*
X152420820Y-42279815D01*
X152387541Y-42248385D01*
X152355950Y-42204904D01*
X152355946Y-42204899D01*
X152220104Y-42069057D01*
X152220102Y-42069055D01*
X152064681Y-41956135D01*
X151893506Y-41868916D01*
X151710802Y-41809553D01*
X151615928Y-41794526D01*
X151521055Y-41779500D01*
X151328945Y-41779500D01*
X151265696Y-41789517D01*
X151139197Y-41809553D01*
X150956493Y-41868916D01*
X150785318Y-41956135D01*
X150727706Y-41997993D01*
X150629898Y-42069055D01*
X150629896Y-42069057D01*
X150629895Y-42069057D01*
X150494057Y-42204895D01*
X150494057Y-42204896D01*
X150494055Y-42204898D01*
X150461530Y-42249665D01*
X150381135Y-42360318D01*
X150293916Y-42531493D01*
X150234553Y-42714197D01*
X150210616Y-42865328D01*
X150204500Y-42903945D01*
X150204500Y-43096055D01*
X150204864Y-43098354D01*
X150234553Y-43285802D01*
X150293916Y-43468506D01*
X150353604Y-43585649D01*
X150381135Y-43639681D01*
X150494055Y-43795102D01*
X150629898Y-43930945D01*
X150785319Y-44043865D01*
X150930787Y-44117985D01*
X150956493Y-44131083D01*
X151047845Y-44160764D01*
X151139199Y-44190447D01*
X151328945Y-44220500D01*
X151328946Y-44220500D01*
X151521054Y-44220500D01*
X151521055Y-44220500D01*
X151710801Y-44190447D01*
X151893509Y-44131082D01*
X152064681Y-44043865D01*
X152220102Y-43930945D01*
X152355945Y-43795102D01*
X152358404Y-43791716D01*
X152387541Y-43751615D01*
X152442871Y-43708949D01*
X152487859Y-43700500D01*
X158273481Y-43700500D01*
X158340520Y-43720185D01*
X158361162Y-43736819D01*
X161139492Y-46515149D01*
X161172977Y-46576472D01*
X161174284Y-46622227D01*
X161149500Y-46778712D01*
X161149500Y-46991286D01*
X161171895Y-47132686D01*
X161182754Y-47201243D01*
X161233456Y-47357288D01*
X161248444Y-47403414D01*
X161344951Y-47592820D01*
X161469890Y-47764786D01*
X161620213Y-47915109D01*
X161792182Y-48040050D01*
X161800946Y-48044516D01*
X161851742Y-48092491D01*
X161868536Y-48160312D01*
X161845998Y-48226447D01*
X161800946Y-48265484D01*
X161792182Y-48269949D01*
X161620213Y-48394890D01*
X161469890Y-48545213D01*
X161344951Y-48717179D01*
X161248444Y-48906585D01*
X161182753Y-49108760D01*
X161149500Y-49318713D01*
X161149500Y-49531287D01*
X161149499Y-49531287D01*
X161174284Y-49687772D01*
X161165329Y-49757065D01*
X161139492Y-49794850D01*
X159871362Y-51062981D01*
X159810039Y-51096466D01*
X159783681Y-51099300D01*
X62087903Y-51099300D01*
X61990866Y-51118602D01*
X61990864Y-51118602D01*
X61979491Y-51120865D01*
X61952571Y-51126220D01*
X61899766Y-51148092D01*
X61825089Y-51179025D01*
X61811866Y-51187861D01*
X61801201Y-51194986D01*
X61801196Y-51194989D01*
X61710361Y-51255683D01*
X61710353Y-51255689D01*
X53982794Y-58983247D01*
X53921471Y-59016732D01*
X53851779Y-59011748D01*
X53807432Y-58983247D01*
X53717213Y-58893028D01*
X53551614Y-58772715D01*
X53531856Y-58762648D01*
X53458917Y-58725483D01*
X53408123Y-58677511D01*
X53391328Y-58609690D01*
X53413865Y-58543555D01*
X53458917Y-58504516D01*
X53551610Y-58457287D01*
X53595381Y-58425486D01*
X53717213Y-58336971D01*
X53717215Y-58336968D01*
X53717219Y-58336966D01*
X53861966Y-58192219D01*
X53861968Y-58192215D01*
X53861971Y-58192213D01*
X53914732Y-58119590D01*
X53982287Y-58026610D01*
X54075220Y-57844219D01*
X54138477Y-57649534D01*
X54170500Y-57447352D01*
X54170500Y-57242648D01*
X54156030Y-57151287D01*
X54138477Y-57040465D01*
X54075218Y-56845776D01*
X54041503Y-56779607D01*
X53982287Y-56663390D01*
X53974556Y-56652749D01*
X53861971Y-56497786D01*
X53717213Y-56353028D01*
X53551614Y-56232715D01*
X53545006Y-56229348D01*
X53458917Y-56185483D01*
X53408123Y-56137511D01*
X53391328Y-56069690D01*
X53413865Y-56003555D01*
X53458917Y-55964516D01*
X53551610Y-55917287D01*
X53595381Y-55885486D01*
X53717213Y-55796971D01*
X53717215Y-55796968D01*
X53717219Y-55796966D01*
X53861966Y-55652219D01*
X53861968Y-55652215D01*
X53861971Y-55652213D01*
X53914732Y-55579590D01*
X53982287Y-55486610D01*
X54075220Y-55304219D01*
X54138477Y-55109534D01*
X54170500Y-54907352D01*
X54170500Y-54702648D01*
X54156030Y-54611287D01*
X54138477Y-54500465D01*
X54075218Y-54305776D01*
X54041503Y-54239607D01*
X53982287Y-54123390D01*
X53974556Y-54112749D01*
X53861971Y-53957786D01*
X53717213Y-53813028D01*
X53551614Y-53692715D01*
X53545006Y-53689348D01*
X53458917Y-53645483D01*
X53408123Y-53597511D01*
X53391328Y-53529690D01*
X53413865Y-53463555D01*
X53458917Y-53424516D01*
X53551610Y-53377287D01*
X53595381Y-53345486D01*
X53717213Y-53256971D01*
X53717215Y-53256968D01*
X53717219Y-53256966D01*
X53861966Y-53112219D01*
X53861968Y-53112215D01*
X53861971Y-53112213D01*
X53914732Y-53039590D01*
X53982287Y-52946610D01*
X54075220Y-52764219D01*
X54138477Y-52569534D01*
X54170500Y-52367352D01*
X54170500Y-52162648D01*
X54156030Y-52071287D01*
X54138477Y-51960465D01*
X54075218Y-51765776D01*
X54041503Y-51699607D01*
X53982287Y-51583390D01*
X53974556Y-51572749D01*
X53861971Y-51417786D01*
X53717213Y-51273028D01*
X53551614Y-51152715D01*
X53542541Y-51148092D01*
X53458917Y-51105483D01*
X53408123Y-51057511D01*
X53391328Y-50989690D01*
X53413865Y-50923555D01*
X53458917Y-50884516D01*
X53551610Y-50837287D01*
X53595381Y-50805486D01*
X53717213Y-50716971D01*
X53717215Y-50716968D01*
X53717219Y-50716966D01*
X53861966Y-50572219D01*
X53861968Y-50572215D01*
X53861971Y-50572213D01*
X53914732Y-50499590D01*
X53982287Y-50406610D01*
X54075220Y-50224219D01*
X54138477Y-50029534D01*
X54170500Y-49827352D01*
X54170500Y-49622648D01*
X54156030Y-49531287D01*
X54138477Y-49420465D01*
X54075218Y-49225776D01*
X54041503Y-49159607D01*
X53982287Y-49043390D01*
X53974556Y-49032749D01*
X53861971Y-48877786D01*
X53717213Y-48733028D01*
X53551614Y-48612715D01*
X53545006Y-48609348D01*
X53458917Y-48565483D01*
X53408123Y-48517511D01*
X53391328Y-48449690D01*
X53413865Y-48383555D01*
X53458917Y-48344516D01*
X53551610Y-48297287D01*
X53595381Y-48265486D01*
X53717213Y-48176971D01*
X53717215Y-48176968D01*
X53717219Y-48176966D01*
X53861966Y-48032219D01*
X53861968Y-48032215D01*
X53861971Y-48032213D01*
X53958040Y-47899983D01*
X118199500Y-47899983D01*
X118199500Y-50100001D01*
X118199501Y-50100018D01*
X118210000Y-50202796D01*
X118210001Y-50202799D01*
X118221280Y-50236836D01*
X118265186Y-50369334D01*
X118357288Y-50518656D01*
X118481344Y-50642712D01*
X118630666Y-50734814D01*
X118797203Y-50789999D01*
X118899991Y-50800500D01*
X121100008Y-50800499D01*
X121202797Y-50789999D01*
X121369334Y-50734814D01*
X121518656Y-50642712D01*
X121642712Y-50518656D01*
X121734814Y-50369334D01*
X121789999Y-50202797D01*
X121800500Y-50100009D01*
X121800499Y-47899992D01*
X121789999Y-47797203D01*
X121734814Y-47630666D01*
X121642712Y-47481344D01*
X121518656Y-47357288D01*
X121405271Y-47287352D01*
X121369336Y-47265187D01*
X121369331Y-47265185D01*
X121367862Y-47264698D01*
X121202797Y-47210001D01*
X121202795Y-47210000D01*
X121100010Y-47199500D01*
X118899998Y-47199500D01*
X118899981Y-47199501D01*
X118797203Y-47210000D01*
X118797200Y-47210001D01*
X118630668Y-47265185D01*
X118630663Y-47265187D01*
X118481342Y-47357289D01*
X118357289Y-47481342D01*
X118265187Y-47630663D01*
X118265186Y-47630666D01*
X118210001Y-47797203D01*
X118210001Y-47797204D01*
X118210000Y-47797204D01*
X118199500Y-47899983D01*
X53958040Y-47899983D01*
X53982286Y-47866611D01*
X53995572Y-47840538D01*
X54075218Y-47684223D01*
X54075218Y-47684222D01*
X54075220Y-47684219D01*
X54138477Y-47489534D01*
X54170500Y-47287352D01*
X54170500Y-47082648D01*
X54156030Y-46991287D01*
X54138477Y-46880465D01*
X54075218Y-46685776D01*
X54038258Y-46613239D01*
X53982287Y-46503390D01*
X53982285Y-46503387D01*
X53982284Y-46503385D01*
X53861971Y-46337786D01*
X53717213Y-46193028D01*
X53551613Y-46072715D01*
X53551612Y-46072714D01*
X53551610Y-46072713D01*
X53494653Y-46043691D01*
X53369223Y-45979781D01*
X53174534Y-45916522D01*
X52999995Y-45888878D01*
X52972352Y-45884500D01*
X52767648Y-45884500D01*
X52743329Y-45888351D01*
X52565465Y-45916522D01*
X52370776Y-45979781D01*
X52188386Y-46072715D01*
X52022786Y-46193028D01*
X51878028Y-46337786D01*
X51757715Y-46503386D01*
X51664781Y-46685776D01*
X51601522Y-46880465D01*
X51569500Y-47082648D01*
X51569500Y-47287351D01*
X51601522Y-47489534D01*
X51664781Y-47684223D01*
X51757715Y-47866613D01*
X51878028Y-48032213D01*
X52022786Y-48176971D01*
X52144619Y-48265486D01*
X52188390Y-48297287D01*
X52279840Y-48343883D01*
X52281080Y-48344515D01*
X52331876Y-48392490D01*
X52348671Y-48460311D01*
X52326134Y-48526446D01*
X52281080Y-48565485D01*
X52188386Y-48612715D01*
X52022786Y-48733028D01*
X51878028Y-48877786D01*
X51757715Y-49043386D01*
X51664781Y-49225776D01*
X51601522Y-49420465D01*
X51569500Y-49622648D01*
X51569500Y-49827351D01*
X51601522Y-50029534D01*
X51664781Y-50224223D01*
X51705831Y-50304786D01*
X51738718Y-50369331D01*
X51757715Y-50406613D01*
X51878028Y-50572213D01*
X52022786Y-50716971D01*
X52144619Y-50805486D01*
X52188390Y-50837287D01*
X52279840Y-50883883D01*
X52281080Y-50884515D01*
X52331876Y-50932490D01*
X52348671Y-51000311D01*
X52326134Y-51066446D01*
X52281080Y-51105485D01*
X52188386Y-51152715D01*
X52022786Y-51273028D01*
X51878028Y-51417786D01*
X51757715Y-51583386D01*
X51664781Y-51765776D01*
X51601522Y-51960465D01*
X51569500Y-52162648D01*
X51569500Y-52367351D01*
X51601522Y-52569534D01*
X51664781Y-52764223D01*
X51757715Y-52946613D01*
X51878028Y-53112213D01*
X52022786Y-53256971D01*
X52144619Y-53345486D01*
X52188390Y-53377287D01*
X52279840Y-53423883D01*
X52281080Y-53424515D01*
X52331876Y-53472490D01*
X52348671Y-53540311D01*
X52326134Y-53606446D01*
X52281080Y-53645485D01*
X52188386Y-53692715D01*
X52022786Y-53813028D01*
X51878028Y-53957786D01*
X51757715Y-54123386D01*
X51664781Y-54305776D01*
X51601522Y-54500465D01*
X51569500Y-54702648D01*
X51569500Y-54907351D01*
X51601522Y-55109534D01*
X51664781Y-55304223D01*
X51705831Y-55384786D01*
X51752885Y-55477135D01*
X51757715Y-55486613D01*
X51878028Y-55652213D01*
X52022786Y-55796971D01*
X52144619Y-55885486D01*
X52188390Y-55917287D01*
X52279840Y-55963883D01*
X52281080Y-55964515D01*
X52331876Y-56012490D01*
X52348671Y-56080311D01*
X52326134Y-56146446D01*
X52281080Y-56185485D01*
X52188386Y-56232715D01*
X52022786Y-56353028D01*
X51878028Y-56497786D01*
X51757715Y-56663386D01*
X51664781Y-56845776D01*
X51601522Y-57040465D01*
X51569500Y-57242648D01*
X51569500Y-57447351D01*
X51601522Y-57649534D01*
X51664781Y-57844223D01*
X51705831Y-57924786D01*
X51753214Y-58017781D01*
X51757715Y-58026613D01*
X51878028Y-58192213D01*
X52022786Y-58336971D01*
X52144619Y-58425486D01*
X52188390Y-58457287D01*
X52279840Y-58503883D01*
X52281080Y-58504515D01*
X52331876Y-58552490D01*
X52348671Y-58620311D01*
X52326134Y-58686446D01*
X52281080Y-58725485D01*
X52188386Y-58772715D01*
X52022786Y-58893028D01*
X51878028Y-59037786D01*
X51757715Y-59203386D01*
X51664781Y-59385776D01*
X51601522Y-59580465D01*
X51569500Y-59782648D01*
X51569500Y-59987351D01*
X51601522Y-60189531D01*
X51664781Y-60384223D01*
X51720013Y-60492620D01*
X51753620Y-60558578D01*
X51757715Y-60566613D01*
X51878028Y-60732213D01*
X52022786Y-60876971D01*
X52144619Y-60965486D01*
X52188390Y-60997287D01*
X52279840Y-61043883D01*
X52281080Y-61044515D01*
X52331876Y-61092490D01*
X52348671Y-61160311D01*
X52326134Y-61226446D01*
X52281080Y-61265485D01*
X52188386Y-61312715D01*
X52022786Y-61433028D01*
X51878028Y-61577786D01*
X51757715Y-61743386D01*
X51664781Y-61925776D01*
X51601522Y-62120465D01*
X51569500Y-62322648D01*
X51569500Y-62527351D01*
X51601522Y-62729531D01*
X51601523Y-62729538D01*
X51634875Y-62832182D01*
X51636870Y-62902023D01*
X51600790Y-62961856D01*
X51538089Y-62992684D01*
X51516944Y-62994500D01*
X50669019Y-62994500D01*
X50601980Y-62974815D01*
X50581338Y-62958181D01*
X37336818Y-49713661D01*
X37303333Y-49652338D01*
X37300499Y-49625980D01*
X37300499Y-47767498D01*
X37300498Y-47767481D01*
X37289999Y-47664703D01*
X37289998Y-47664700D01*
X37266178Y-47592816D01*
X37234814Y-47498166D01*
X37142712Y-47348844D01*
X37018656Y-47224788D01*
X36869334Y-47132686D01*
X36702797Y-47077501D01*
X36702795Y-47077500D01*
X36600010Y-47067000D01*
X34399998Y-47067000D01*
X34399981Y-47067001D01*
X34297203Y-47077500D01*
X34297200Y-47077501D01*
X34130668Y-47132685D01*
X34130663Y-47132687D01*
X33981342Y-47224789D01*
X33857289Y-47348842D01*
X33765187Y-47498163D01*
X33765186Y-47498166D01*
X33710001Y-47664703D01*
X33710001Y-47664704D01*
X33710000Y-47664704D01*
X33699500Y-47767483D01*
X33699500Y-49967501D01*
X33699501Y-49967518D01*
X33710000Y-50070296D01*
X33710001Y-50070299D01*
X33753907Y-50202796D01*
X33765186Y-50236834D01*
X33857288Y-50386156D01*
X33981344Y-50510212D01*
X34130666Y-50602314D01*
X34297203Y-50657499D01*
X34399991Y-50668000D01*
X36258480Y-50667999D01*
X36325519Y-50687684D01*
X36346161Y-50704318D01*
X49880953Y-64239111D01*
X49880954Y-64239112D01*
X49995692Y-64315777D01*
X50123167Y-64368578D01*
X50123172Y-64368580D01*
X50123176Y-64368580D01*
X50123177Y-64368581D01*
X50258503Y-64395500D01*
X50258506Y-64395500D01*
X50258507Y-64395500D01*
X51516944Y-64395500D01*
X51583983Y-64415185D01*
X51629738Y-64467989D01*
X51639682Y-64537147D01*
X51634875Y-64557818D01*
X51601523Y-64660461D01*
X51601523Y-64660464D01*
X51569500Y-64862648D01*
X51569500Y-65067351D01*
X51601522Y-65269531D01*
X51664781Y-65464223D01*
X51705831Y-65544786D01*
X51753214Y-65637781D01*
X51757715Y-65646613D01*
X51878028Y-65812213D01*
X52022786Y-65956971D01*
X52144619Y-66045486D01*
X52188390Y-66077287D01*
X52279840Y-66123883D01*
X52281080Y-66124515D01*
X52331876Y-66172490D01*
X52348671Y-66240311D01*
X52326134Y-66306446D01*
X52281080Y-66345485D01*
X52188386Y-66392715D01*
X52022786Y-66513028D01*
X51878028Y-66657786D01*
X51757715Y-66823386D01*
X51664781Y-67005776D01*
X51601522Y-67200465D01*
X51569500Y-67402648D01*
X51569500Y-67607351D01*
X51601522Y-67809531D01*
X51664781Y-68004223D01*
X51705831Y-68084786D01*
X51753214Y-68177781D01*
X51757715Y-68186613D01*
X51878028Y-68352213D01*
X52022786Y-68496971D01*
X52144619Y-68585486D01*
X52188390Y-68617287D01*
X52279840Y-68663883D01*
X52281080Y-68664515D01*
X52331876Y-68712490D01*
X52348671Y-68780311D01*
X52326134Y-68846446D01*
X52281080Y-68885485D01*
X52188386Y-68932715D01*
X52022786Y-69053028D01*
X51878028Y-69197786D01*
X51757715Y-69363386D01*
X51664781Y-69545776D01*
X51601522Y-69740465D01*
X51569500Y-69942648D01*
X51569500Y-70147351D01*
X51601522Y-70349531D01*
X51664781Y-70544223D01*
X51705831Y-70624786D01*
X51753214Y-70717781D01*
X51757715Y-70726613D01*
X51878028Y-70892213D01*
X52022786Y-71036971D01*
X52144619Y-71125486D01*
X52188390Y-71157287D01*
X52304607Y-71216503D01*
X52370776Y-71250218D01*
X52370778Y-71250218D01*
X52370781Y-71250220D01*
X52475137Y-71284127D01*
X52565465Y-71313477D01*
X52666557Y-71329488D01*
X52767648Y-71345500D01*
X52767649Y-71345500D01*
X52972351Y-71345500D01*
X52972352Y-71345500D01*
X53174534Y-71313477D01*
X53369219Y-71250220D01*
X53551610Y-71157287D01*
X53661412Y-71077512D01*
X53717213Y-71036971D01*
X53717215Y-71036968D01*
X53717219Y-71036966D01*
X53861966Y-70892219D01*
X53861968Y-70892215D01*
X53861971Y-70892213D01*
X53937930Y-70787662D01*
X53982287Y-70726610D01*
X54075220Y-70544219D01*
X54138477Y-70349534D01*
X54138476Y-70349534D01*
X54138478Y-70349531D01*
X54170500Y-70147351D01*
X54170500Y-69942648D01*
X54138477Y-69740465D01*
X54075218Y-69545776D01*
X54041503Y-69479607D01*
X53982287Y-69363390D01*
X53974556Y-69352749D01*
X53861971Y-69197786D01*
X53717213Y-69053028D01*
X53551614Y-68932715D01*
X53531856Y-68922648D01*
X53458917Y-68885483D01*
X53408123Y-68837511D01*
X53391328Y-68769690D01*
X53413865Y-68703555D01*
X53458917Y-68664516D01*
X53551610Y-68617287D01*
X53595381Y-68585486D01*
X53717213Y-68496971D01*
X53717215Y-68496968D01*
X53717219Y-68496966D01*
X53861966Y-68352219D01*
X53861968Y-68352215D01*
X53861971Y-68352213D01*
X53914732Y-68279590D01*
X53982287Y-68186610D01*
X54075220Y-68004219D01*
X54138477Y-67809534D01*
X54138476Y-67809534D01*
X54138478Y-67809531D01*
X54170500Y-67607351D01*
X54170500Y-67402648D01*
X54138477Y-67200465D01*
X54075218Y-67005776D01*
X54041503Y-66939607D01*
X53982287Y-66823390D01*
X53974556Y-66812749D01*
X53861971Y-66657786D01*
X53717213Y-66513028D01*
X53551614Y-66392715D01*
X53531856Y-66382648D01*
X53458917Y-66345483D01*
X53408123Y-66297511D01*
X53391328Y-66229690D01*
X53413865Y-66163555D01*
X53458917Y-66124516D01*
X53551610Y-66077287D01*
X53595381Y-66045486D01*
X53717213Y-65956971D01*
X53717215Y-65956968D01*
X53717219Y-65956966D01*
X53861966Y-65812219D01*
X53861968Y-65812215D01*
X53861971Y-65812213D01*
X53914732Y-65739590D01*
X53982287Y-65646610D01*
X54075220Y-65464219D01*
X54138477Y-65269534D01*
X54138476Y-65269534D01*
X54138478Y-65269531D01*
X54170500Y-65067351D01*
X54170500Y-64862648D01*
X54159344Y-64792213D01*
X54138477Y-64660466D01*
X54138476Y-64660462D01*
X54138476Y-64660461D01*
X54105125Y-64557818D01*
X54103130Y-64487977D01*
X54139210Y-64428144D01*
X54201911Y-64397316D01*
X54223056Y-64395500D01*
X89176781Y-64395500D01*
X89243820Y-64415185D01*
X89264462Y-64431819D01*
X99296061Y-74463419D01*
X99329546Y-74524742D01*
X99324562Y-74594434D01*
X99282690Y-74650367D01*
X99217226Y-74674784D01*
X99208380Y-74675100D01*
X89341519Y-74675100D01*
X89274480Y-74655415D01*
X89253838Y-74638781D01*
X88107146Y-73492088D01*
X88107145Y-73492087D01*
X87992407Y-73415422D01*
X87864932Y-73362621D01*
X87864922Y-73362618D01*
X87729596Y-73335700D01*
X87729594Y-73335700D01*
X87729593Y-73335700D01*
X54842219Y-73335700D01*
X54775180Y-73316015D01*
X54754538Y-73299381D01*
X53814346Y-72359188D01*
X53814345Y-72359187D01*
X53699607Y-72282522D01*
X53572132Y-72229721D01*
X53572122Y-72229718D01*
X53436796Y-72202800D01*
X53436794Y-72202800D01*
X53436793Y-72202800D01*
X52441194Y-72202800D01*
X52303206Y-72202800D01*
X52303204Y-72202800D01*
X52167877Y-72229718D01*
X52167867Y-72229721D01*
X52040392Y-72282522D01*
X51925654Y-72359187D01*
X51124187Y-73160654D01*
X51047522Y-73275392D01*
X50994721Y-73402867D01*
X50994718Y-73402879D01*
X50973858Y-73507752D01*
X50973858Y-73507754D01*
X50967800Y-73538207D01*
X50967800Y-77073806D01*
X50967800Y-77211794D01*
X50967800Y-77211796D01*
X50967799Y-77211796D01*
X50994718Y-77347122D01*
X50994721Y-77347132D01*
X51047522Y-77474607D01*
X51124187Y-77589345D01*
X51124188Y-77589346D01*
X51800870Y-78266027D01*
X51834355Y-78327350D01*
X51829371Y-78397041D01*
X51813508Y-78426591D01*
X51757717Y-78503383D01*
X51757712Y-78503391D01*
X51664781Y-78685776D01*
X51601522Y-78880465D01*
X51578597Y-79025213D01*
X51569500Y-79082648D01*
X51569500Y-79287352D01*
X51573878Y-79314995D01*
X51601522Y-79489534D01*
X51664781Y-79684223D01*
X51700590Y-79754500D01*
X51753620Y-79858578D01*
X51757715Y-79866613D01*
X51878028Y-80032213D01*
X52022786Y-80176971D01*
X52177749Y-80289556D01*
X52188390Y-80297287D01*
X52279840Y-80343883D01*
X52281080Y-80344515D01*
X52331876Y-80392490D01*
X52348671Y-80460311D01*
X52326134Y-80526446D01*
X52281080Y-80565485D01*
X52188386Y-80612715D01*
X52022786Y-80733028D01*
X51878028Y-80877786D01*
X51757715Y-81043386D01*
X51664781Y-81225776D01*
X51601522Y-81420465D01*
X51569500Y-81622648D01*
X51569500Y-81827351D01*
X51601522Y-82029534D01*
X51664781Y-82224223D01*
X51700590Y-82294500D01*
X51753620Y-82398578D01*
X51757715Y-82406613D01*
X51878028Y-82572213D01*
X52022786Y-82716971D01*
X52177749Y-82829556D01*
X52188390Y-82837287D01*
X52279840Y-82883883D01*
X52281080Y-82884515D01*
X52331876Y-82932490D01*
X52348671Y-83000311D01*
X52326134Y-83066446D01*
X52281080Y-83105485D01*
X52188386Y-83152715D01*
X52022786Y-83273028D01*
X51878028Y-83417786D01*
X51757715Y-83583386D01*
X51664781Y-83765776D01*
X51601522Y-83960465D01*
X51569500Y-84162648D01*
X51569500Y-84367352D01*
X51570356Y-84372754D01*
X51601522Y-84569534D01*
X51664781Y-84764223D01*
X51726716Y-84885775D01*
X51753620Y-84938578D01*
X51757715Y-84946613D01*
X51878028Y-85112213D01*
X52022786Y-85256971D01*
X52177749Y-85369556D01*
X52188390Y-85377287D01*
X52279840Y-85423883D01*
X52281080Y-85424515D01*
X52331876Y-85472490D01*
X52348671Y-85540311D01*
X52326134Y-85606446D01*
X52281080Y-85645485D01*
X52188386Y-85692715D01*
X52022786Y-85813028D01*
X51878028Y-85957786D01*
X51757715Y-86123386D01*
X51664781Y-86305776D01*
X51601522Y-86500465D01*
X51569500Y-86702648D01*
X51569500Y-86907351D01*
X51601523Y-87109535D01*
X51601523Y-87109538D01*
X51634875Y-87212182D01*
X51636870Y-87282023D01*
X51600790Y-87341856D01*
X51538089Y-87372684D01*
X51516944Y-87374500D01*
X46549019Y-87374500D01*
X46481980Y-87354815D01*
X46461338Y-87338181D01*
X36336818Y-77213661D01*
X36303333Y-77152338D01*
X36300499Y-77125980D01*
X36300499Y-75267498D01*
X36300498Y-75267481D01*
X36289999Y-75164703D01*
X36289998Y-75164700D01*
X36264506Y-75087771D01*
X36234814Y-74998166D01*
X36142712Y-74848844D01*
X36018656Y-74724788D01*
X35869334Y-74632686D01*
X35702797Y-74577501D01*
X35702795Y-74577500D01*
X35600010Y-74567000D01*
X33399998Y-74567000D01*
X33399981Y-74567001D01*
X33297203Y-74577500D01*
X33297200Y-74577501D01*
X33130668Y-74632685D01*
X33130663Y-74632687D01*
X32981342Y-74724789D01*
X32857289Y-74848842D01*
X32765187Y-74998163D01*
X32765186Y-74998166D01*
X32710001Y-75164703D01*
X32710001Y-75164704D01*
X32710000Y-75164704D01*
X32699500Y-75267483D01*
X23500500Y-75267483D01*
X23500500Y-71249514D01*
X32700000Y-71249514D01*
X32700000Y-71485485D01*
X32730799Y-71719414D01*
X32791870Y-71947337D01*
X32882160Y-72165319D01*
X32882165Y-72165328D01*
X33000144Y-72369671D01*
X33000145Y-72369672D01*
X33062721Y-72451223D01*
X33898958Y-71614987D01*
X33923978Y-71675390D01*
X33995112Y-71781851D01*
X34085649Y-71872388D01*
X34192110Y-71943522D01*
X34252511Y-71968541D01*
X33416275Y-72804777D01*
X33497827Y-72867354D01*
X33497828Y-72867355D01*
X33702171Y-72985334D01*
X33702180Y-72985339D01*
X33920163Y-73075629D01*
X33920161Y-73075629D01*
X34148085Y-73136700D01*
X34382014Y-73167499D01*
X34382029Y-73167500D01*
X34617971Y-73167500D01*
X34617985Y-73167499D01*
X34851914Y-73136700D01*
X35079837Y-73075629D01*
X35297819Y-72985339D01*
X35297828Y-72985334D01*
X35502181Y-72867350D01*
X35583723Y-72804779D01*
X35583723Y-72804776D01*
X34747487Y-71968541D01*
X34807890Y-71943522D01*
X34914351Y-71872388D01*
X35004888Y-71781851D01*
X35076022Y-71675390D01*
X35101041Y-71614987D01*
X35937276Y-72451223D01*
X35937279Y-72451223D01*
X35999850Y-72369681D01*
X36117834Y-72165328D01*
X36117839Y-72165319D01*
X36208129Y-71947337D01*
X36269200Y-71719414D01*
X36299999Y-71485485D01*
X36300000Y-71485471D01*
X36300000Y-71249528D01*
X36299999Y-71249514D01*
X36269200Y-71015585D01*
X36208129Y-70787662D01*
X36117839Y-70569680D01*
X36117834Y-70569671D01*
X35999855Y-70365328D01*
X35999854Y-70365327D01*
X35937277Y-70283775D01*
X35101041Y-71120011D01*
X35076022Y-71059610D01*
X35004888Y-70953149D01*
X34914351Y-70862612D01*
X34807890Y-70791478D01*
X34747488Y-70766458D01*
X35583723Y-69930221D01*
X35502172Y-69867645D01*
X35502171Y-69867644D01*
X35297828Y-69749665D01*
X35297819Y-69749660D01*
X35079836Y-69659370D01*
X35079838Y-69659370D01*
X34851914Y-69598299D01*
X34617985Y-69567500D01*
X34382014Y-69567500D01*
X34148085Y-69598299D01*
X33920162Y-69659370D01*
X33702180Y-69749660D01*
X33702171Y-69749665D01*
X33497828Y-69867644D01*
X33497818Y-69867650D01*
X33416275Y-69930220D01*
X33416275Y-69930221D01*
X34252512Y-70766458D01*
X34192110Y-70791478D01*
X34085649Y-70862612D01*
X33995112Y-70953149D01*
X33923978Y-71059610D01*
X33898958Y-71120011D01*
X33062721Y-70283775D01*
X33062720Y-70283775D01*
X33000150Y-70365318D01*
X33000144Y-70365328D01*
X32882165Y-70569671D01*
X32882160Y-70569680D01*
X32791870Y-70787662D01*
X32730799Y-71015585D01*
X32700000Y-71249514D01*
X23500500Y-71249514D01*
X23500500Y-43749514D01*
X33700000Y-43749514D01*
X33700000Y-43985485D01*
X33730799Y-44219414D01*
X33791870Y-44447337D01*
X33882160Y-44665319D01*
X33882165Y-44665328D01*
X34000144Y-44869671D01*
X34000145Y-44869672D01*
X34062721Y-44951223D01*
X34898958Y-44114987D01*
X34923978Y-44175390D01*
X34995112Y-44281851D01*
X35085649Y-44372388D01*
X35192110Y-44443522D01*
X35252511Y-44468541D01*
X34416275Y-45304777D01*
X34497827Y-45367354D01*
X34497828Y-45367355D01*
X34702171Y-45485334D01*
X34702180Y-45485339D01*
X34920163Y-45575629D01*
X34920161Y-45575629D01*
X35148085Y-45636700D01*
X35382014Y-45667499D01*
X35382029Y-45667500D01*
X35617971Y-45667500D01*
X35617985Y-45667499D01*
X35851914Y-45636700D01*
X36079837Y-45575629D01*
X36297819Y-45485339D01*
X36297828Y-45485334D01*
X36502181Y-45367350D01*
X36583723Y-45304779D01*
X36583723Y-45304776D01*
X35747487Y-44468541D01*
X35807890Y-44443522D01*
X35914351Y-44372388D01*
X36004888Y-44281851D01*
X36076022Y-44175390D01*
X36101041Y-44114987D01*
X36937276Y-44951223D01*
X36937279Y-44951223D01*
X36999850Y-44869681D01*
X37117834Y-44665328D01*
X37117839Y-44665319D01*
X37208129Y-44447337D01*
X37269200Y-44219414D01*
X37299999Y-43985485D01*
X37300000Y-43985471D01*
X37300000Y-43882014D01*
X118200000Y-43882014D01*
X118200000Y-44117985D01*
X118230799Y-44351914D01*
X118291870Y-44579837D01*
X118382160Y-44797819D01*
X118382165Y-44797828D01*
X118500144Y-45002171D01*
X118500145Y-45002172D01*
X118562721Y-45083723D01*
X119398958Y-44247487D01*
X119423978Y-44307890D01*
X119495112Y-44414351D01*
X119585649Y-44504888D01*
X119692110Y-44576022D01*
X119752511Y-44601041D01*
X118916275Y-45437277D01*
X118997827Y-45499854D01*
X118997828Y-45499855D01*
X119202171Y-45617834D01*
X119202180Y-45617839D01*
X119420163Y-45708129D01*
X119420161Y-45708129D01*
X119648085Y-45769200D01*
X119882014Y-45799999D01*
X119882029Y-45800000D01*
X120117971Y-45800000D01*
X120117985Y-45799999D01*
X120351914Y-45769200D01*
X120579837Y-45708129D01*
X120797819Y-45617839D01*
X120797828Y-45617834D01*
X121002181Y-45499850D01*
X121074985Y-45443984D01*
X145125000Y-45443984D01*
X145125000Y-45636015D01*
X145155040Y-45825684D01*
X145214383Y-46008321D01*
X145301561Y-46179415D01*
X145322798Y-46208646D01*
X145945000Y-45586445D01*
X145945000Y-45592661D01*
X145972259Y-45694394D01*
X146024920Y-45785606D01*
X146099394Y-45860080D01*
X146190606Y-45912741D01*
X146292339Y-45940000D01*
X146298554Y-45940000D01*
X145676351Y-46562200D01*
X145676352Y-46562201D01*
X145705577Y-46583434D01*
X145876678Y-46670616D01*
X146059315Y-46729959D01*
X146248985Y-46760000D01*
X146441015Y-46760000D01*
X146630684Y-46729959D01*
X146813321Y-46670616D01*
X146984419Y-46583436D01*
X147013646Y-46562201D01*
X147013646Y-46562200D01*
X146391447Y-45940000D01*
X146397661Y-45940000D01*
X146499394Y-45912741D01*
X146590606Y-45860080D01*
X146665080Y-45785606D01*
X146717741Y-45694394D01*
X146745000Y-45592661D01*
X146745000Y-45586446D01*
X147367200Y-46208646D01*
X147367201Y-46208646D01*
X147388436Y-46179419D01*
X147475616Y-46008321D01*
X147534959Y-45825684D01*
X147565000Y-45636015D01*
X147565000Y-45443984D01*
X147534959Y-45254315D01*
X147475616Y-45071678D01*
X147388434Y-44900577D01*
X147367201Y-44871352D01*
X147367200Y-44871351D01*
X146745000Y-45493552D01*
X146745000Y-45487339D01*
X146717741Y-45385606D01*
X146665080Y-45294394D01*
X146590606Y-45219920D01*
X146499394Y-45167259D01*
X146397661Y-45140000D01*
X146391447Y-45140000D01*
X147013646Y-44517798D01*
X146984415Y-44496561D01*
X146813321Y-44409383D01*
X146630684Y-44350040D01*
X146441015Y-44320000D01*
X146248985Y-44320000D01*
X146059315Y-44350040D01*
X145876678Y-44409383D01*
X145705578Y-44496564D01*
X145676352Y-44517798D01*
X145676351Y-44517798D01*
X146298554Y-45140000D01*
X146292339Y-45140000D01*
X146190606Y-45167259D01*
X146099394Y-45219920D01*
X146024920Y-45294394D01*
X145972259Y-45385606D01*
X145945000Y-45487339D01*
X145945000Y-45493553D01*
X145322798Y-44871351D01*
X145322798Y-44871352D01*
X145301564Y-44900578D01*
X145214383Y-45071678D01*
X145155040Y-45254315D01*
X145125000Y-45443984D01*
X121074985Y-45443984D01*
X121083724Y-45437278D01*
X121083724Y-45437277D01*
X120247487Y-44601041D01*
X120307890Y-44576022D01*
X120414351Y-44504888D01*
X120504888Y-44414351D01*
X120576022Y-44307890D01*
X120601041Y-44247488D01*
X121437276Y-45083723D01*
X121437279Y-45083723D01*
X121499850Y-45002181D01*
X121617834Y-44797828D01*
X121617839Y-44797819D01*
X121708129Y-44579837D01*
X121720689Y-44532964D01*
X121720689Y-44532963D01*
X121769201Y-44351912D01*
X121799999Y-44117985D01*
X121800000Y-44117971D01*
X121800000Y-43882028D01*
X121799999Y-43882014D01*
X121769200Y-43648085D01*
X121708129Y-43420162D01*
X121617839Y-43202180D01*
X121617834Y-43202171D01*
X121499855Y-42997828D01*
X121499854Y-42997827D01*
X121437277Y-42916275D01*
X120601041Y-43752511D01*
X120576022Y-43692110D01*
X120504888Y-43585649D01*
X120414351Y-43495112D01*
X120307890Y-43423978D01*
X120247488Y-43398958D01*
X121083723Y-42562721D01*
X121002172Y-42500145D01*
X121002171Y-42500144D01*
X120797828Y-42382165D01*
X120797819Y-42382160D01*
X120579836Y-42291870D01*
X120579838Y-42291870D01*
X120351914Y-42230799D01*
X120117985Y-42200000D01*
X119882014Y-42200000D01*
X119648085Y-42230799D01*
X119420162Y-42291870D01*
X119202180Y-42382160D01*
X119202171Y-42382165D01*
X118997828Y-42500144D01*
X118997818Y-42500150D01*
X118916275Y-42562720D01*
X118916275Y-42562721D01*
X119752512Y-43398958D01*
X119692110Y-43423978D01*
X119585649Y-43495112D01*
X119495112Y-43585649D01*
X119423978Y-43692110D01*
X119398958Y-43752512D01*
X118562721Y-42916275D01*
X118562720Y-42916275D01*
X118500150Y-42997818D01*
X118500144Y-42997828D01*
X118382165Y-43202171D01*
X118382160Y-43202180D01*
X118291870Y-43420162D01*
X118230799Y-43648085D01*
X118200000Y-43882014D01*
X37300000Y-43882014D01*
X37300000Y-43749528D01*
X37299999Y-43749514D01*
X37269200Y-43515585D01*
X37208129Y-43287662D01*
X37117839Y-43069680D01*
X37117834Y-43069671D01*
X36999855Y-42865328D01*
X36999854Y-42865327D01*
X36937277Y-42783775D01*
X36101041Y-43620011D01*
X36076022Y-43559610D01*
X36004888Y-43453149D01*
X35914351Y-43362612D01*
X35807890Y-43291478D01*
X35747488Y-43266458D01*
X36490952Y-42522993D01*
X36583723Y-42430221D01*
X36502172Y-42367645D01*
X36502171Y-42367644D01*
X36297828Y-42249665D01*
X36297819Y-42249660D01*
X36079836Y-42159370D01*
X36079838Y-42159370D01*
X35851914Y-42098299D01*
X35617985Y-42067500D01*
X35382014Y-42067500D01*
X35148085Y-42098299D01*
X34920162Y-42159370D01*
X34702180Y-42249660D01*
X34702171Y-42249665D01*
X34497828Y-42367644D01*
X34497818Y-42367650D01*
X34416275Y-42430220D01*
X34416275Y-42430221D01*
X35252512Y-43266458D01*
X35192110Y-43291478D01*
X35085649Y-43362612D01*
X34995112Y-43453149D01*
X34923978Y-43559610D01*
X34898958Y-43620011D01*
X34062721Y-42783775D01*
X34062720Y-42783775D01*
X34000150Y-42865318D01*
X34000144Y-42865328D01*
X33882165Y-43069671D01*
X33882160Y-43069680D01*
X33791870Y-43287662D01*
X33730799Y-43515585D01*
X33700000Y-43749514D01*
X23500500Y-43749514D01*
X23500500Y-24482135D01*
X121649500Y-24482135D01*
X121649500Y-26277870D01*
X121649501Y-26277876D01*
X121655908Y-26337483D01*
X121706202Y-26472328D01*
X121706206Y-26472335D01*
X121792452Y-26587544D01*
X121792455Y-26587547D01*
X121907664Y-26673793D01*
X121907671Y-26673797D01*
X122039082Y-26722810D01*
X122095016Y-26764681D01*
X122119433Y-26830145D01*
X122104582Y-26898418D01*
X122083431Y-26926673D01*
X121969889Y-27040215D01*
X121844951Y-27212179D01*
X121748444Y-27401585D01*
X121682753Y-27603760D01*
X121649500Y-27813713D01*
X121649500Y-28026286D01*
X121682753Y-28236239D01*
X121748444Y-28438414D01*
X121844951Y-28627820D01*
X121969890Y-28799786D01*
X122120213Y-28950109D01*
X122292182Y-29075050D01*
X122300946Y-29079516D01*
X122351742Y-29127491D01*
X122368536Y-29195312D01*
X122345998Y-29261447D01*
X122300946Y-29300484D01*
X122292182Y-29304949D01*
X122120213Y-29429890D01*
X121969890Y-29580213D01*
X121844951Y-29752179D01*
X121748444Y-29941585D01*
X121682753Y-30143760D01*
X121649500Y-30353713D01*
X121649500Y-30566286D01*
X121682753Y-30776239D01*
X121748444Y-30978414D01*
X121844951Y-31167820D01*
X121969890Y-31339786D01*
X122120213Y-31490109D01*
X122292179Y-31615048D01*
X122292181Y-31615049D01*
X122292184Y-31615051D01*
X122301493Y-31619794D01*
X122352290Y-31667766D01*
X122369087Y-31735587D01*
X122346552Y-31801722D01*
X122301505Y-31840760D01*
X122292446Y-31845376D01*
X122292440Y-31845380D01*
X122238282Y-31884727D01*
X122238282Y-31884728D01*
X122870591Y-32517037D01*
X122807007Y-32534075D01*
X122692993Y-32599901D01*
X122599901Y-32692993D01*
X122534075Y-32807007D01*
X122517037Y-32870591D01*
X121884728Y-32238282D01*
X121884727Y-32238282D01*
X121845380Y-32292439D01*
X121748904Y-32481782D01*
X121683242Y-32683869D01*
X121683242Y-32683872D01*
X121650000Y-32893753D01*
X121650000Y-33106246D01*
X121683242Y-33316127D01*
X121683242Y-33316130D01*
X121748904Y-33518217D01*
X121845375Y-33707550D01*
X121884728Y-33761716D01*
X122517037Y-33129408D01*
X122534075Y-33192993D01*
X122599901Y-33307007D01*
X122692993Y-33400099D01*
X122807007Y-33465925D01*
X122870590Y-33482962D01*
X122238282Y-34115269D01*
X122238282Y-34115270D01*
X122292449Y-34154624D01*
X122481782Y-34251095D01*
X122683870Y-34316757D01*
X122893754Y-34350000D01*
X123106246Y-34350000D01*
X123316127Y-34316757D01*
X123316130Y-34316757D01*
X123518217Y-34251095D01*
X123707554Y-34154622D01*
X123761716Y-34115270D01*
X123761717Y-34115270D01*
X123129408Y-33482962D01*
X123192993Y-33465925D01*
X123307007Y-33400099D01*
X123400099Y-33307007D01*
X123465925Y-33192993D01*
X123482962Y-33129408D01*
X124115270Y-33761717D01*
X124115270Y-33761716D01*
X124154622Y-33707554D01*
X124251095Y-33518217D01*
X124316757Y-33316130D01*
X124316757Y-33316127D01*
X124350000Y-33106246D01*
X124350000Y-32893753D01*
X124316757Y-32683872D01*
X124316757Y-32683869D01*
X124251095Y-32481782D01*
X124154624Y-32292449D01*
X124115270Y-32238282D01*
X124115269Y-32238282D01*
X123482962Y-32870590D01*
X123465925Y-32807007D01*
X123400099Y-32692993D01*
X123307007Y-32599901D01*
X123192993Y-32534075D01*
X123129409Y-32517037D01*
X123761716Y-31884728D01*
X123707547Y-31845373D01*
X123707547Y-31845372D01*
X123698500Y-31840763D01*
X123647706Y-31792788D01*
X123630912Y-31724966D01*
X123653451Y-31658832D01*
X123698508Y-31619793D01*
X123707816Y-31615051D01*
X123787007Y-31557515D01*
X123879786Y-31490109D01*
X123879788Y-31490106D01*
X123879792Y-31490104D01*
X124030104Y-31339792D01*
X124030106Y-31339788D01*
X124030109Y-31339786D01*
X124155048Y-31167820D01*
X124155047Y-31167820D01*
X124155051Y-31167816D01*
X124251557Y-30978412D01*
X124317246Y-30776243D01*
X124350500Y-30566287D01*
X124350500Y-30353713D01*
X124317246Y-30143757D01*
X124251557Y-29941588D01*
X124155051Y-29752184D01*
X124155049Y-29752181D01*
X124155048Y-29752179D01*
X124030109Y-29580213D01*
X123879786Y-29429890D01*
X123707820Y-29304951D01*
X123707115Y-29304591D01*
X123699054Y-29300485D01*
X123648259Y-29252512D01*
X123631463Y-29184692D01*
X123653999Y-29118556D01*
X123699054Y-29079515D01*
X123707816Y-29075051D01*
X123729789Y-29059086D01*
X123879786Y-28950109D01*
X123879788Y-28950106D01*
X123879792Y-28950104D01*
X124030104Y-28799792D01*
X124030106Y-28799788D01*
X124030109Y-28799786D01*
X124155048Y-28627820D01*
X124155047Y-28627820D01*
X124155051Y-28627816D01*
X124251557Y-28438412D01*
X124317246Y-28236243D01*
X124350500Y-28026287D01*
X124350500Y-27813713D01*
X124317246Y-27603757D01*
X124251557Y-27401588D01*
X124155051Y-27212184D01*
X124155049Y-27212181D01*
X124155048Y-27212179D01*
X124030109Y-27040213D01*
X123916569Y-26926673D01*
X123883084Y-26865350D01*
X123888068Y-26795658D01*
X123929940Y-26739725D01*
X123960915Y-26722810D01*
X124092331Y-26673796D01*
X124207546Y-26587546D01*
X124293796Y-26472331D01*
X124344091Y-26337483D01*
X124350500Y-26277873D01*
X124350499Y-24482128D01*
X124344091Y-24422517D01*
X124293796Y-24287669D01*
X124293795Y-24287668D01*
X124293793Y-24287664D01*
X124207547Y-24172455D01*
X124207544Y-24172452D01*
X124092335Y-24086206D01*
X124092328Y-24086202D01*
X123957482Y-24035908D01*
X123957483Y-24035908D01*
X123897883Y-24029501D01*
X123897881Y-24029500D01*
X123897873Y-24029500D01*
X123897864Y-24029500D01*
X122102129Y-24029500D01*
X122102123Y-24029501D01*
X122042516Y-24035908D01*
X121907671Y-24086202D01*
X121907664Y-24086206D01*
X121792455Y-24172452D01*
X121792452Y-24172455D01*
X121706206Y-24287664D01*
X121706202Y-24287671D01*
X121655908Y-24422517D01*
X121649501Y-24482116D01*
X121649501Y-24482123D01*
X121649500Y-24482135D01*
X23500500Y-24482135D01*
X23500500Y-20624500D01*
X23520185Y-20557461D01*
X23572989Y-20511706D01*
X23624500Y-20500500D01*
X169375500Y-20500500D01*
X169442539Y-20520185D01*
G37*
%TD.AperFunction*%
%TD*%
M02*
